<?xml version="1.0" encoding="utf-8"?>
<!-- Generator: Adobe Illustrator 16.0.0, SVG Export Plug-In . SVG Version: 6.00 Build 0)  -->
<!DOCTYPE svg PUBLIC "-//W3C//DTD SVG 1.1//EN" "http://www.w3.org/Graphics/SVG/1.1/DTD/svg11.dtd">
<svg version="1.1" id="Layer_1" xmlns="http://www.w3.org/2000/svg" xmlns:xlink="http://www.w3.org/1999/xlink" x="0px" y="0px"
	 width="400px" height="400px" viewBox="0 0 400 400" enable-background="new 0 0 400 400" xml:space="preserve">
<path fill-rule="evenodd" clip-rule="evenodd" fill="#5B4B73" d="M118,326.789h164c2.762,0,5,2.238,5,5v47c0,2.762-2.238,5-5,5H118
	c-2.761,0-5-2.238-5-5v-47C113,329.027,115.239,326.789,118,326.789z"/>
<g>
	<path fill="#111926" d="M150.371,357.126c0,1.214-0.198,2.345-0.593,3.395c-0.396,1.051-0.954,1.96-1.675,2.73
		c-0.721,0.77-1.582,1.377-2.582,1.82c-1.001,0.442-2.094,0.665-3.28,0.665c-0.465,0-1.03-0.048-1.693-0.141
		c-0.663-0.094-1.25-0.222-1.762-0.385l-2.905,0.525v-24.115l2.905-0.455l-0.035,9.511c0.583-0.543,1.236-1.016,1.96-1.418
		c0.723-0.401,1.563-0.603,2.52-0.603c1.12,0,2.123,0.216,3.01,0.647c0.886,0.432,1.639,1.026,2.257,1.785
		c0.618,0.758,1.085,1.65,1.4,2.677C150.213,354.793,150.371,355.913,150.371,357.126z M147.396,357.214
		c0-1.768-0.418-3.188-1.255-4.257c-0.837-1.07-1.999-1.606-3.486-1.606c-0.744,0-1.44,0.141-2.091,0.419
		c-0.651,0.279-1.244,0.651-1.778,1.117v9.107c0.953,0.768,2.138,1.151,3.556,1.151c0.813,0,1.533-0.156,2.161-0.471
		c0.627-0.313,1.156-0.738,1.586-1.273c0.43-0.535,0.755-1.163,0.976-1.885C147.285,358.796,147.396,358.028,147.396,357.214z"/>
	<path fill="#111926" d="M160.486,365.386l-1.085,2.87c-0.374,1.026-0.765,1.878-1.172,2.555c-0.409,0.677-0.84,1.213-1.295,1.61
		c-0.455,0.396-0.94,0.683-1.453,0.857c-0.514,0.175-1.085,0.263-1.715,0.263c-0.607,0-1.19-0.075-1.75-0.225
		c-0.56-0.15-1.108-0.352-1.645-0.604l0.84-2.636c0.42,0.21,0.852,0.391,1.295,0.542c0.443,0.151,0.863,0.228,1.26,0.228
		c0.303,0,0.583-0.047,0.84-0.14c0.256-0.094,0.507-0.275,0.752-0.544s0.484-0.625,0.717-1.069c0.233-0.443,0.49-1.017,0.77-1.718
		l0.98-2.489l-6.23-15.705h3.08l4.655,12.46l4.515-12.46h3.045L160.486,365.386z"/>
	<path fill="#111926" d="M179.595,348.936v9.625c0,0.98,0.195,1.663,0.587,2.048c0.391,0.385,0.932,0.577,1.622,0.577
		c0.575,0,1.092-0.104,1.553-0.314s0.852-0.467,1.174-0.771v-11.165h5.425v16.03l-5.425,0.665v-2.415
		c-0.628,0.677-1.396,1.267-2.303,1.768c-0.907,0.502-1.895,0.753-2.964,0.753c-1.605,0-2.855-0.496-3.75-1.488
		c-0.895-0.991-1.343-2.362-1.343-4.112v-11.2H179.595z"/>
	<path fill="#111926" d="M203.711,365.211l-3.115-5.215l-3.081,5.215h-5.81l5.6-8.295l-5.46-7.98h5.705l3.01,4.69l2.904-4.69h5.741
		l-5.391,7.91l5.6,8.365H203.711z"/>
	<path fill="#111926" d="M215.436,358.351c0.093,1.098,0.502,1.942,1.225,2.538c0.724,0.595,1.75,0.893,3.08,0.893
		c0.887,0,1.791-0.146,2.713-0.438s1.79-0.671,2.607-1.138l0.525,4.165c-0.817,0.42-1.78,0.747-2.888,0.979
		c-1.108,0.233-2.258,0.351-3.447,0.351c-1.377,0-2.625-0.188-3.745-0.561s-2.077-0.921-2.87-1.645
		c-0.794-0.723-1.406-1.615-1.838-2.678c-0.432-1.062-0.647-2.269-0.647-3.622c0-1.33,0.216-2.538,0.647-3.623
		s1.038-2.006,1.82-2.765c0.781-0.758,1.715-1.348,2.8-1.768s2.27-0.63,3.553-0.63c2.31,0,4.077,0.63,5.303,1.89
		c1.225,1.26,1.837,2.905,1.837,4.936c0,0.443-0.029,0.944-0.087,1.505c-0.059,0.56-0.146,1.015-0.263,1.364l-10.325,0.176V358.351z
		 M221.105,355.551v-0.314c0-0.98-0.204-1.744-0.612-2.293c-0.408-0.548-1.032-0.822-1.873-0.822c-0.933,0-1.668,0.345-2.204,1.032
		c-0.537,0.688-0.853,1.5-0.945,2.433L221.105,355.551z"/>
	<path fill="#111926" d="M246.06,356.881c0,1.354-0.216,2.572-0.647,3.657c-0.433,1.085-1.021,2.013-1.768,2.783
		c-0.747,0.77-1.616,1.359-2.607,1.768c-0.992,0.407-2.036,0.612-3.133,0.612c-0.537,0-1.149-0.064-1.837-0.192
		c-0.688-0.129-1.302-0.286-1.838-0.473l-5.075,0.7v-23.66l5.425-0.665l-0.034,9.205c0.513-0.537,1.143-1.038,1.89-1.505
		c0.746-0.467,1.645-0.7,2.695-0.7c1.003,0,1.93,0.198,2.782,0.595c0.852,0.397,1.58,0.963,2.188,1.697
		c0.606,0.735,1.085,1.622,1.435,2.66C245.885,354.402,246.06,355.574,246.06,356.881z M240.635,357.161
		c0-1.4-0.283-2.49-0.848-3.272c-0.565-0.781-1.402-1.173-2.509-1.173c-0.6,0-1.107,0.105-1.522,0.315
		c-0.416,0.21-0.808,0.479-1.177,0.805v7.175c0.669,0.443,1.488,0.665,2.457,0.665c1.152,0,2.041-0.414,2.664-1.242
		S240.635,358.515,240.635,357.161z"/>
	<path fill="#111926" d="M254.319,348.936v9.625c0,0.98,0.195,1.663,0.587,2.048c0.391,0.385,0.932,0.577,1.622,0.577
		c0.574,0,1.092-0.104,1.553-0.314c0.46-0.21,0.851-0.467,1.173-0.771v-11.165h5.426v16.03l-5.426,0.665v-2.415
		c-0.628,0.677-1.396,1.267-2.302,1.768c-0.907,0.502-1.896,0.753-2.965,0.753c-1.605,0-2.855-0.496-3.751-1.488
		c-0.895-0.991-1.342-2.362-1.342-4.112v-11.2H254.319z"/>
</g>
<path fill="#16313B" d="M198.325,51.775c41,0,74.237,33.238,74.237,74.237c0,40.999-33.239,74.242-74.237,74.242
	c-41.001,0-74.237-33.243-74.237-74.242C124.088,85.015,157.326,51.775,198.325,51.775z"/>
<path fill="#136461" d="M190.19,68.992c31.492,0,57.021,25.53,57.021,57.023c0,31.492-25.528,57.02-57.021,57.02
	c-31.494,0-57.024-25.527-57.024-57.02C133.167,94.521,158.697,68.992,190.19,68.992z"/>
<path fill="#26A9A8" d="M151.915,126.651c1.977,7.813,5.668,14.334,9.8,20.009c4.192,5.633,8.992,10.317,14.104,14.131
	c10.323,7.553,21.421,12.032,33.168,13.933l0.26-9.605c-10.607-0.51-21.717-3.583-31.709-9.596
	c-5.005-3.043-9.789-6.955-14.037-11.826c-4.177-4.848-8.075-10.851-10.246-17.684L151.915,126.651z"/>
<path fill="#26A9A8" d="M208.123,167.511c-10.85-0.806-22.146-4.295-32.224-10.825c-5.046-3.301-9.843-7.509-14.066-12.695
	c-3.907-4.868-7.537-10.795-9.659-17.462l1.075-0.514c2.17,6.833,6.07,12.833,10.246,17.685c4.247,4.87,9.03,8.781,14.038,11.823
	c9.993,6.014,21.103,9.088,31.707,9.598l-0.259,9.605c-0.409-0.064-0.812-0.14-1.222-0.214L208.123,167.511z"/>
<path fill="#26A9A8" d="M215.315,116.619c-0.905,5.57-2.983,10.582-5.325,14.692c-2.391,4.13-5.19,7.532-8.2,10.248
	c-0.827,0.744-1.68,1.439-2.545,2.094l0.505,5.493c1.197-1.08,2.378-2.242,3.531-3.491c3.026-3.339,5.779-7.353,8.074-12.089
	c2.253-4.767,4.161-10.179,4.87-16.52L215.315,116.619z"/>
<path fill="#26A9A8" d="M201.79,141.559c3.01-2.716,5.813-6.119,8.2-10.248c2.342-4.11,4.42-9.122,5.325-14.692l0.91,0.429
	c-0.015,0.139-0.04,0.267-0.054,0.403l-0.041-0.022c-0.907,5.57-2.99,10.583-5.331,14.692c-2.388,4.132-5.191,7.531-8.197,10.251
	c-0.83,0.743-1.682,1.438-2.542,2.096l0.367,4.044c-0.225,0.21-0.449,0.432-0.673,0.637l-0.507-5.492
	C200.11,142.998,200.963,142.302,201.79,141.559z"/>
<path fill="#26A9A8" d="M181.635,118.391c19.335,34.728,17.777,72.321,6.522,107.688h24.688c2.878-20.711,3.297-34.405-1.213-54.808
	c-4.443-20.403-13.442-39.581-25.842-55.647L181.635,118.391z"/>
<path fill="#26A9A8" d="M208.872,171.73c-4.363-20.017-13.113-38.848-25.152-54.727l2.072-1.38
	c12.399,16.066,21.4,35.244,25.841,55.647c4.51,20.403,4.089,34.097,1.211,54.808h-2.698
	C212.966,205.625,213.348,191.983,208.872,171.73z"/>
<path fill="#FFFFFF" d="M97.582,36.637c0,0,1.229,11.556,6.615,15.299c5.389,3.745,14.938,1.501,14.938,1.501
	s-9.823,1.362-13.614,6.813c-3.695,5.321-1.362,14.736-1.362,14.736s-1.228-9.73-6.618-13.475
	c-5.388-3.742-14.935-1.501-14.935-1.501s9.823-1.361,13.613-6.813C99.918,47.879,97.582,36.637,97.582,36.637z"/>
<path fill="#26A9A8" d="M282.012,24.414c0,0,1.623,12.863,8.744,17.812c7.123,4.947,19.742,1.984,19.742,1.984
	s-12.984,1.8-17.993,9.011c-4.887,7.033-1.8,19.478-1.8,19.478s-1.625-12.863-8.746-17.811c-7.121-4.95-19.742-1.985-19.742-1.985
	s12.984-1.801,17.992-9.011C285.097,36.86,282.012,24.414,282.012,24.414z"/>
<path fill="#FFFFFF" d="M97.57,199.103l-16.077-7.171l-12.081-12.808l16.076,7.175L97.57,199.103z"/>
<path fill="#FFFFFF" d="M93.701,174.724l-7.171,16.078l-12.805,12.08l7.172-16.078L93.701,174.724z"/>
<path fill="#26A9A8" d="M177.112,15.285c2.521,0,4.565,2.044,4.565,4.565c0,2.521-2.043,4.564-4.565,4.564
	c-2.521,0-4.564-2.042-4.564-4.564C172.547,17.327,174.591,15.285,177.112,15.285z"/>
<path fill="#FFFFFF" d="M97.57,133.33c2.016,0,3.651,1.636,3.651,3.652c0,2.018-1.636,3.651-3.651,3.651s-3.652-1.634-3.652-3.651
	C93.918,134.966,95.554,133.33,97.57,133.33z"/>
<path fill="#26A9A8" d="M136.944,200.233c2.016,0,3.651,1.637,3.651,3.651c0,2.018-1.636,3.651-3.651,3.651
	s-3.652-1.634-3.652-3.651C133.292,201.87,134.928,200.233,136.944,200.233z"/>
<path fill="#FFFFFF" d="M299.443,147.937c4.034,0,7.303,3.271,7.303,7.303c0,4.034-3.269,7.304-7.303,7.304
	c-4.033,0-7.304-3.271-7.304-7.304C292.14,151.207,295.41,147.937,299.443,147.937z"/>
<g>
	<path fill="#FFFFFF" d="M135.88,275.84c0,2.755-0.44,5.234-1.317,7.441c-0.878,2.209-2.078,4.095-3.597,5.662
		c-1.521,1.565-3.289,2.768-5.305,3.597c-2.018,0.829-4.143,1.246-6.374,1.246c-1.094,0-2.339-0.131-3.737-0.392
		c-1.402-0.262-2.647-0.582-3.74-0.96l-10.325,1.423v-48.135l11.037-1.352l-0.071,18.728c1.044-1.094,2.326-2.114,3.845-3.065
		c1.519-0.949,3.347-1.421,5.483-1.421c2.041,0,3.928,0.403,5.662,1.21c1.733,0.806,3.216,1.958,4.452,3.454
		c1.234,1.495,2.208,3.301,2.92,5.411C135.525,270.801,135.88,273.182,135.88,275.84z M124.842,276.409
		c0-2.851-0.575-5.067-1.723-6.657c-1.151-1.588-2.852-2.385-5.104-2.385c-1.22,0-2.253,0.212-3.096,0.639
		c-0.845,0.429-1.643,0.975-2.394,1.64v14.597c1.36,0.902,3.027,1.353,4.997,1.353c2.347,0,4.153-0.842,5.419-2.528
		C124.208,281.384,124.842,279.164,124.842,276.409z"/>
	<path fill="#FFFFFF" d="M175.611,276.125c0,2.753-0.475,5.232-1.424,7.44c-0.952,2.207-2.234,4.073-3.845,5.591
		c-1.614,1.521-3.512,2.683-5.697,3.488c-2.183,0.808-4.509,1.211-6.978,1.211c-2.47,0-4.783-0.38-6.944-1.14
		c-2.162-0.76-4.024-1.885-5.591-3.383c-1.566-1.498-2.8-3.334-3.702-5.518c-0.902-2.183-1.354-4.676-1.354-7.476
		c0-2.802,0.463-5.305,1.39-7.513c0.925-2.207,2.207-4.068,3.845-5.593c1.638-1.519,3.548-2.67,5.731-3.453
		c2.184-0.784,4.533-1.175,7.049-1.175s4.842,0.391,6.978,1.175c2.137,0.783,3.988,1.924,5.555,3.419
		c1.568,1.494,2.789,3.321,3.668,5.482C175.172,270.842,175.611,273.324,175.611,276.125z M164.717,276.234
		c0-2.79-0.583-5.025-1.746-6.705c-1.163-1.68-2.885-2.52-5.165-2.52c-2.277,0-3.986,0.84-5.126,2.52
		c-1.139,1.68-1.708,3.938-1.708,6.775c0,2.835,0.58,5.071,1.743,6.701c1.163,1.633,2.884,2.449,5.164,2.449
		c2.278,0,3.986-0.827,5.127-2.482C164.146,281.315,164.717,279.069,164.717,276.234z"/>
	<path fill="#FFFFFF" d="M203.241,292.787v-19.581c0-1.997-0.41-3.37-1.23-4.133c-0.819-0.756-1.954-1.137-3.405-1.137
		c-1.22,0-2.331,0.248-3.338,0.746c-1.01,0.497-1.863,1.082-2.565,1.745v22.358h-11.037v-32.543l11.037-1.352l-0.071,5.414
		c1.462-1.662,3.137-3.027,5.022-4.097c1.887-1.067,3.892-1.601,6.016-1.601c3.344,0,5.949,1.01,7.813,3.026
		c1.866,2.016,2.797,4.807,2.797,8.366v22.785L203.241,292.787L203.241,292.787z"/>
	<path fill="#FFFFFF" d="M248.74,282.962c0,1.471-0.32,2.872-0.961,4.2c-0.64,1.331-1.601,2.492-2.883,3.489s-2.86,1.779-4.736,2.35
		c-1.876,0.571-4.021,0.854-6.444,0.854c-1.138,0-2.35-0.061-3.63-0.18c-1.283-0.118-2.54-0.307-3.772-0.568
		c-1.237-0.264-2.436-0.569-3.598-0.926c-1.164-0.356-2.173-0.772-3.027-1.248l2.139-7.903c1.944,0.996,3.963,1.769,6.053,2.315
		c2.088,0.546,4.104,0.818,6.051,0.818c2.99,0,4.487-0.9,4.487-2.705c0-0.951-0.465-1.647-1.393-2.102
		c-0.924-0.447-2.338-0.889-4.233-1.318c-1.9-0.379-3.633-0.854-5.201-1.422c-1.565-0.569-2.896-1.281-3.987-2.138
		c-1.095-0.856-1.937-1.874-2.529-3.063c-0.594-1.184-0.89-2.585-0.89-4.2c0-1.565,0.334-2.99,0.997-4.271
		c0.665-1.283,1.616-2.396,2.852-3.347c1.233-0.951,2.764-1.686,4.592-2.208c1.826-0.522,3.882-0.783,6.16-0.783
		c1.093,0,2.252,0.071,3.489,0.214c1.233,0.14,2.457,0.343,3.666,0.603c1.21,0.265,2.362,0.571,3.455,0.928
		c1.093,0.357,2.041,0.722,2.85,1.103l-2.198,7.833c-1.893-0.95-3.868-1.687-5.922-2.207c-2.059-0.523-3.866-0.784-5.426-0.784
		c-2.698,0-4.042,0.831-4.042,2.493c0,0.901,0.495,1.576,1.487,2.027c0.991,0.451,2.388,0.868,4.186,1.246
		c1.939,0.427,3.678,0.927,5.211,1.494c1.536,0.57,2.839,1.271,3.9,2.102c1.065,0.832,1.882,1.839,2.45,3.026
		C248.457,279.875,248.74,281.3,248.74,282.962z"/>
	<path fill="#FFFFFF" d="M272.523,288.801c-1.185,1.376-2.504,2.561-3.951,3.559c-1.448,0.995-3.31,1.495-5.593,1.495
		c-1.423,0-2.753-0.238-3.986-0.713c-1.236-0.476-2.304-1.126-3.205-1.959c-0.902-0.829-1.614-1.803-2.137-2.921
		c-0.522-1.111-0.783-2.313-0.783-3.596c0-1.563,0.321-3.037,0.962-4.414c0.642-1.377,1.718-2.589,3.237-3.63
		c1.519-1.045,3.537-1.901,6.053-2.563c2.517-0.665,5.626-1.044,9.326-1.139v-0.645c0-1.754-0.462-3.035-1.388-3.843
		c-0.925-0.807-2.41-1.21-4.451-1.21c-1.711,0-3.526,0.32-5.446,0.959c-1.926,0.645-3.857,1.437-5.805,2.387l-2.278-8.047
		c1.757-0.947,3.949-1.837,6.586-2.669c2.635-0.83,5.516-1.246,8.651-1.246c2.849,0,5.244,0.318,7.191,0.96
		c1.944,0.642,3.513,1.578,4.699,2.814c1.186,1.232,2.028,2.741,2.526,4.521c0.5,1.781,0.724,3.835,0.678,6.159l-0.071,9.828
		c0,1.138,0.168,1.851,0.498,2.136c0.329,0.285,1.067,0.474,2.206,0.57l-1.068,7.832c-3.607,0.474-6.361,0.272-8.258-0.604
		c-1.901-0.878-3.229-2.218-3.988-4.022H272.523z M272.451,278.048c-3.416,0.384-5.813,0.938-7.188,1.674
		c-1.381,0.735-2.065,1.84-2.065,3.311c0,1.093,0.378,1.956,1.139,2.598c0.759,0.643,1.753,0.964,2.991,0.964
		c1.091,0,2.075-0.202,2.953-0.606c0.878-0.403,1.604-0.938,2.171-1.601V278.048z"/>
	<path fill="#FFFFFF" d="M303,249.138c0,1.897-0.567,3.346-1.709,4.344c-1.142,0.996-2.731,1.494-4.771,1.494
		c-1.994,0-3.574-0.498-4.736-1.494c-1.163-0.998-1.744-2.446-1.744-4.344c0-1.946,0.581-3.419,1.744-4.416
		c1.162-0.996,2.742-1.492,4.736-1.492c2.04,0,3.63,0.496,4.771,1.492C302.428,245.719,303,247.191,303,249.138z M291.038,292.787
		v-32.541l11.038-1.354v33.896H291.038z"/>
</g>
</svg>
