<?xml version="1.0" encoding="utf-8"?>
<!-- Generator: Adobe Illustrator 16.0.0, SVG Export Plug-In . SVG Version: 6.00 Build 0)  -->
<!DOCTYPE svg PUBLIC "-//W3C//DTD SVG 1.1//EN" "http://www.w3.org/Graphics/SVG/1.1/DTD/svg11.dtd">
<svg version="1.1" id="Layer_1" xmlns="http://www.w3.org/2000/svg" xmlns:xlink="http://www.w3.org/1999/xlink" x="0px" y="0px"
	 width="800px" height="600px" viewBox="0 0 800 600" enable-background="new 0 0 800 600" xml:space="preserve">
<path fill-rule="evenodd" clip-rule="evenodd" fill="#F26349" d="M275.366,245.933H124.611c-3.93,0-7.125,3.186-7.125,7.124v141.886
	c0,3.936,3.195,7.127,7.125,7.127h150.754c3.935,0,7.121-3.191,7.121-7.127V253.057C282.487,249.119,279.3,245.933,275.366,245.933z
	 M160.667,253.015c2.736,0,4.958,2.224,4.958,4.962c0,2.738-2.223,4.962-4.958,4.962c-2.74,0-4.958-2.224-4.958-4.962
	C155.709,255.239,157.927,253.015,160.667,253.015z M144.863,253.015c2.737,0,4.96,2.224,4.96,4.962c0,2.738-2.223,4.962-4.96,4.962
	c-2.74,0-4.958-2.224-4.958-4.962C139.904,255.239,142.123,253.015,144.863,253.015z M124.104,257.978
	c0-2.739,2.218-4.962,4.958-4.962c2.735,0,4.958,2.224,4.958,4.962c0,2.738-2.224,4.962-4.958,4.962
	C126.322,262.939,124.104,260.716,124.104,257.978z M274.932,394.039H125.047V268.132h149.885V394.039z"/>
<path fill-rule="evenodd" clip-rule="evenodd" fill="#51B152" d="M611.794,299.665v-11.875l-1.681-0.547l-12.736-4.15l-3.399-8.19
	l6.533-13.796l-8.415-8.396l-1.575,0.798l-11.946,6.055l-8.205-3.392l-5.157-14.368h-11.897l-0.548,1.678l-4.158,12.712
	l-8.202,3.391l-13.828-6.52l-8.412,8.397l0.8,1.572l6.066,11.926l-3.396,8.185l-14.398,5.146v11.876l1.682,0.547l12.737,4.15
	l3.398,8.188l-6.532,13.798l8.411,8.397l1.577-0.8l11.947-6.054l8.204,3.392l5.154,14.367h11.898l0.55-1.678l4.159-12.711
	l8.204-3.393l13.824,6.521l8.414-8.399l-0.8-1.573L594,313l3.398-8.189L611.794,299.665z M559.517,310.607
	c-9.201,0-16.661-7.445-16.661-16.629c0-9.183,7.46-16.628,16.661-16.628s16.66,7.445,16.66,16.628
	C576.177,303.162,568.718,310.607,559.517,310.607z"/>
<path opacity="0.5" fill-rule="evenodd" clip-rule="evenodd" fill="#51B152" d="M637.94,363.993v-6.976l-0.987-0.322l-7.483-2.438
	l-1.997-4.812l3.839-8.104l-4.944-4.934l-0.926,0.47l-7.018,3.557l-4.82-1.992l-3.03-8.441h-6.989l-0.322,0.986l-2.443,7.468
	L596,340.446l-8.124-3.83l-4.942,4.934l0.47,0.924l3.564,7.006l-1.995,4.809l-8.46,3.023v6.978l0.988,0.321l7.483,2.438l1.996,4.811
	l-3.837,8.106l4.941,4.934l0.927-0.47l7.019-3.557l4.819,1.992l3.029,8.44h6.99l0.323-0.985l2.442-7.468l4.82-1.993l8.122,3.831
	l4.943-4.934l-0.47-0.925l-3.564-7.004l1.996-4.811L637.94,363.993z M607.227,370.422c-5.405,0-9.788-4.374-9.788-9.769
	c0-5.396,4.383-9.77,9.788-9.77c5.406,0,9.788,4.374,9.788,9.77C617.015,366.048,612.633,370.422,607.227,370.422z"/>
<path opacity="0.25" fill-rule="evenodd" clip-rule="evenodd" fill="#51B152" d="M672.057,332.397v-5.007l-0.707-0.23l-5.358-1.749
	l-1.431-3.453l2.749-5.816l-3.54-3.54l-0.663,0.336l-5.026,2.553l-3.452-1.43l-2.17-6.058h-5.006l-0.23,0.708l-1.75,5.359
	l-3.451,1.43l-5.818-2.749l-3.539,3.54l0.337,0.663l2.552,5.028l-1.429,3.45l-6.059,2.17v5.007l0.708,0.23l5.359,1.75l1.43,3.452
	l-2.748,5.817l3.538,3.54l0.664-0.337l5.026-2.553l3.452,1.431l2.169,6.057h5.007l0.23-0.707l1.75-5.359l3.452-1.43l5.816,2.749
	l3.54-3.541l-0.336-0.663l-2.553-5.026l1.43-3.452L672.057,332.397z M650.062,337.011c-3.872,0-7.011-3.139-7.011-7.011
	s3.139-7.011,7.011-7.011c3.871,0,7.01,3.139,7.01,7.011S653.933,337.011,650.062,337.011z"/>
<g>
	<g>
		<path fill="#9FD9D8" d="M502.922,98.142c0.756-0.405,1.428-0.903,2.016-1.491s1.057-1.281,1.407-2.078
			c0.35-0.799,0.525-1.688,0.525-2.668c0-2.239-0.75-4.038-2.247-5.396c-1.498-1.358-3.886-2.037-7.161-2.037h-6.216v26.25h1.722
			v-10.92l5.997-0.378l7.106,11.298h1.975l-7.477-11.634C501.382,98.863,502.166,98.548,502.922,98.142z M498.067,97.994l-5.1,0.168
			V86.024h4.257c2.641,0,4.607,0.512,5.9,1.533c1.292,1.022,1.938,2.472,1.938,4.347c0,0.924-0.196,1.758-0.59,2.5
			s-0.921,1.371-1.581,1.89s-1.404,0.924-2.233,1.218S498.967,97.967,498.067,97.994z M529.423,100.767
			c0,2.8-0.637,4.971-1.911,6.511c-1.274,1.539-3.228,2.31-5.858,2.31c-2.576,0-4.516-0.757-5.817-2.269s-1.953-3.584-1.953-6.216
			V84.471h-1.722v16.758c0,3.108,0.812,5.537,2.436,7.287s3.962,2.625,7.015,2.625c1.567,0,2.939-0.245,4.116-0.734
			c1.176-0.49,2.169-1.184,2.981-2.08c0.812-0.895,1.421-1.98,1.827-3.254c0.405-1.274,0.609-2.695,0.609-4.264V84.471h-1.723
			V100.767z M555.295,108.326l-15.839-23.855h-2.053v26.25h1.722V86.907l15.918,24.066h1.974V84.471h-1.722V108.326z
			 M581.797,108.326l-15.839-23.855h-2.053v26.25h1.722V86.907l15.918,24.066h1.974V84.471h-1.722V108.326z M590.407,110.721H605.4
			v-1.555h-13.271V98.373h11.088v-1.555h-11.088V86.024H605.4v-1.554h-14.993V110.721z M620.311,99.087
			c0.812-0.224,1.596-0.539,2.352-0.945c0.756-0.405,1.429-0.903,2.017-1.491s1.057-1.281,1.406-2.078
			c0.351-0.799,0.525-1.688,0.525-2.668c0-2.239-0.749-4.038-2.247-5.396c-1.498-1.358-3.885-2.037-7.161-2.037h-6.216v26.25h1.722
			v-10.92l5.997-0.378l7.107,11.298h1.974L620.311,99.087z M617.808,97.994l-5.1,0.168V86.024h4.258
			c2.641,0,4.606,0.512,5.899,1.533c1.293,1.022,1.939,2.472,1.939,4.347c0,0.924-0.197,1.758-0.591,2.5s-0.92,1.371-1.58,1.89
			s-1.405,0.924-2.234,1.218S618.707,97.967,617.808,97.994z"/>
	</g>
</g>
<g>
	<g>
		<path fill="#9FD9D8" d="M129.163,98.919c0.756-0.405,1.428-0.903,2.016-1.491c0.588-0.588,1.056-1.281,1.407-2.078
			c0.35-0.799,0.525-1.688,0.525-2.668c0-2.239-0.75-4.038-2.247-5.396c-1.498-1.358-3.885-2.037-7.161-2.037h-6.216v26.25h1.722
			v-10.92l5.997-0.378l7.107,11.298h1.974l-7.476-11.634C127.623,99.641,128.407,99.325,129.163,98.919z M124.309,98.771l-5.1,0.168
			V86.802h4.257c2.641,0,4.606,0.512,5.899,1.533c1.293,1.022,1.939,2.472,1.939,4.347c0,0.924-0.197,1.758-0.59,2.5
			c-0.394,0.742-0.92,1.371-1.581,1.89s-1.405,0.924-2.234,1.218C126.071,98.583,125.208,98.744,124.309,98.771z M139.032,111.498
			h14.994v-1.555h-13.272V99.15h11.087v-1.555h-11.087V86.802h13.272v-1.554h-14.994V111.498z M177.504,109.104l-15.838-23.855
			h-2.055v26.25h1.723V87.684l15.918,24.066h1.975V85.248h-1.723V109.104z M202.578,88.839c-1.205-1.134-2.66-2.016-4.368-2.646
			c-1.708-0.63-3.626-0.945-5.755-0.945h-6.342v26.25h6.09c2.213,0,4.193-0.294,5.943-0.882c1.75-0.589,3.234-1.449,4.452-2.583
			c1.218-1.135,2.149-2.527,2.793-4.18c0.644-1.651,0.966-3.541,0.966-5.67c0-1.903-0.329-3.653-0.986-5.25
			C204.713,91.338,203.781,89.973,202.578,88.839z M203.646,103.537c-0.604,1.461-1.453,2.663-2.548,3.604
			c-1.095,0.941-2.394,1.645-3.896,2.107c-1.501,0.465-3.15,0.695-4.946,0.695h-4.421V86.802h4.421c1.937,0,3.663,0.274,5.179,0.823
			c1.516,0.548,2.801,1.328,3.853,2.339c1.053,1.012,1.86,2.228,2.422,3.646c0.562,1.42,0.842,3,0.842,4.742
			C204.552,100.348,204.25,102.076,203.646,103.537z M211.775,111.498h14.994v-1.555h-13.271V99.15h11.088v-1.555h-11.088V86.802
			h13.271v-1.554h-14.994V111.498z M244.031,98.919c0.756-0.405,1.428-0.903,2.016-1.491s1.057-1.281,1.407-2.078
			c0.35-0.799,0.524-1.688,0.524-2.668c0-2.239-0.749-4.038-2.246-5.396c-1.498-1.358-3.885-2.037-7.161-2.037h-6.216v26.25h1.722
			v-10.92l5.997-0.378l7.107,11.298h1.974l-7.476-11.634C242.49,99.641,243.275,99.325,244.031,98.919z M239.177,98.771l-5.1,0.168
			V86.802h4.257c2.641,0,4.607,0.512,5.9,1.533c1.293,1.022,1.938,2.472,1.938,4.347c0,0.924-0.196,1.758-0.59,2.5
			s-0.921,1.371-1.581,1.89s-1.404,0.924-2.234,1.218C240.939,98.583,240.076,98.744,239.177,98.771z M253.9,111.498h14.994v-1.555
			h-13.271V99.15h11.088v-1.555h-11.088V86.802h13.271v-1.554H253.9V111.498z M283.805,99.864c0.811-0.224,1.596-0.539,2.352-0.945
			c0.756-0.405,1.428-0.903,2.016-1.491s1.057-1.281,1.407-2.078c0.35-0.799,0.524-1.688,0.524-2.668
			c0-2.239-0.749-4.038-2.246-5.396c-1.498-1.358-3.885-2.037-7.161-2.037h-6.216v26.25h1.722v-10.92l5.997-0.378l7.107,11.298
			h1.974L283.805,99.864z M281.302,98.771l-5.1,0.168V86.802h4.257c2.641,0,4.607,0.512,5.9,1.533
			c1.293,1.022,1.938,2.472,1.938,4.347c0,0.924-0.196,1.758-0.59,2.5s-0.921,1.371-1.581,1.89s-1.404,0.924-2.234,1.218
			C283.064,98.583,282.201,98.744,281.302,98.771z"/>
	</g>
</g>
<path fill-rule="evenodd" clip-rule="evenodd" fill="none" stroke="#262C35" stroke-width="4" stroke-linecap="round" stroke-miterlimit="10" stroke-dasharray="18" d="
	M409.559,459.003v-272"/>
<g>
	<g>
		<path fill-rule="evenodd" clip-rule="evenodd" fill="#7FBBC6" d="M460.854,321.597l-10.221-10.229
			c-1.399-1.402-3.669-1.402-5.07,0c-0.701,0.7-1.052,1.619-1.052,2.537c0,0.919,0.351,1.839,1.052,2.538l3.771,3.775h-80.436
			l3.813-3.781c1.409-1.4,1.409-3.67,0-5.071c-1.413-1.398-3.701-1.398-5.11,0l-9.667,9.589c-1.412,1.402-1.412,3.672,0,5.07
			l10.299,10.217c1.41,1.401,3.697,1.401,5.109,0c0.707-0.699,1.06-1.617,1.06-2.534s-0.353-1.836-1.06-2.535l-3.813-3.783h80.451
			l-0.007,0.021l-3.784,3.785c-1.398,1.401-1.398,3.675,0,5.077c1.401,1.399,3.673,1.399,5.071,0l9.594-9.601
			C462.256,325.27,462.256,322.997,460.854,321.597z"/>
	</g>
</g>
<text x="408" y="520" text-anchor="middle" font-family="FreightSansBook" font-size="25" fill="#9FD9D8" >
    MESSAGE CHANNEL
  </text>
</svg>
