<?xml version="1.0" encoding="utf-8"?>
<!-- Generator: Adobe Illustrator 16.0.0, SVG Export Plug-In . SVG Version: 6.00 Build 0)  -->
<!DOCTYPE svg PUBLIC "-//W3C//DTD SVG 1.1//EN" "http://www.w3.org/Graphics/SVG/1.1/DTD/svg11.dtd">
<svg version="1.1" id="Layer_1" xmlns="http://www.w3.org/2000/svg" xmlns:xlink="http://www.w3.org/1999/xlink" x="0px" y="0px"
	 width="800px" height="600px" viewBox="0 0 800 600" enable-background="new 0 0 800 600" xml:space="preserve">
<path fill-rule="evenodd" clip-rule="evenodd" fill="#F26349" d="M239.04,382.501h-65.372c-6.25,0-11.314,5.056-11.314,11.29
	v132.422c0,6.233,5.064,11.29,11.314,11.29h65.372c6.261,0,11.32-5.057,11.32-11.29V393.791
	C250.36,387.557,245.301,382.501,239.04,382.501z M198.965,392.117h14.787v4.898h-14.787V392.117z M206.365,531.575
	c-3.986,0-7.223-3.22-7.223-7.195c0-3.972,3.237-7.196,7.223-7.196c3.981,0,7.209,3.225,7.209,7.196
	C213.574,528.355,210.346,531.575,206.365,531.575z M241.885,512.644h-71.051V407.36h71.051V512.644z"/>
<path fill-rule="evenodd" clip-rule="evenodd" fill="#F26349" d="M281.736,174.515H130.982c-3.93,0-7.125,3.186-7.125,7.124v141.886
	c0,3.936,3.195,7.127,7.125,7.127h150.754c3.935,0,7.121-3.191,7.121-7.127V181.639
	C288.857,177.701,285.671,174.515,281.736,174.515z M167.038,181.597c2.736,0,4.958,2.224,4.958,4.962
	c0,2.738-2.223,4.962-4.958,4.962c-2.74,0-4.958-2.224-4.958-4.962C162.08,183.821,164.298,181.597,167.038,181.597z
	 M151.233,181.597c2.737,0,4.96,2.224,4.96,4.962c0,2.738-2.223,4.962-4.96,4.962c-2.74,0-4.958-2.224-4.958-4.962
	C146.275,183.821,148.493,181.597,151.233,181.597z M130.475,186.56c0-2.739,2.218-4.962,4.958-4.962
	c2.735,0,4.958,2.224,4.958,4.962c0,2.738-2.224,4.962-4.958,4.962C132.693,191.521,130.475,189.298,130.475,186.56z
	 M281.303,322.621H131.418V196.714h149.885V322.621z"/>
<path fill-rule="evenodd" clip-rule="evenodd" fill="#51B152" d="M601.794,329.665v-11.874l-1.681-0.548l-12.736-4.149l-3.399-8.19
	l6.533-13.796l-8.415-8.396l-1.575,0.798l-11.946,6.055l-8.205-3.392l-5.157-14.368h-11.897l-0.548,1.678l-4.158,12.712
	l-8.202,3.391l-13.828-6.52l-8.412,8.397l0.8,1.572l6.066,11.926l-3.396,8.186l-14.398,5.145v11.877l1.682,0.547l12.737,4.15
	l3.398,8.188l-6.532,13.798l8.411,8.397l1.577-0.8l11.947-6.054l8.204,3.392l5.154,14.367h11.898l0.55-1.678l4.159-12.711
	l8.204-3.393l13.824,6.521l8.414-8.399l-0.8-1.573L584,343l3.398-8.189L601.794,329.665z M549.517,340.607
	c-9.201,0-16.661-7.445-16.661-16.629s7.46-16.628,16.661-16.628s16.66,7.444,16.66,16.628S558.718,340.607,549.517,340.607z"/>
<path opacity="0.5" fill-rule="evenodd" clip-rule="evenodd" fill="#51B152" d="M627.94,393.993v-6.976l-0.987-0.322l-7.483-2.438
	l-1.997-4.812l3.839-8.104l-4.944-4.934l-0.926,0.47l-7.018,3.557l-4.82-1.992l-3.03-8.441h-6.989l-0.322,0.986l-2.443,7.468
	L586,370.446l-8.124-3.83l-4.942,4.934l0.47,0.924l3.564,7.006l-1.995,4.809l-8.46,3.023v6.978l0.988,0.321l7.483,2.438l1.996,4.811
	l-3.837,8.106l4.941,4.934l0.927-0.47l7.019-3.557l4.819,1.992l3.029,8.44h6.99l0.323-0.985l2.442-7.468l4.82-1.993l8.122,3.831
	l4.943-4.934l-0.47-0.925l-3.564-7.004l1.996-4.811L627.94,393.993z M597.227,400.422c-5.405,0-9.788-4.374-9.788-9.769
	c0-5.396,4.383-9.77,9.788-9.77c5.406,0,9.788,4.374,9.788,9.77C607.015,396.048,602.633,400.422,597.227,400.422z"/>
<path opacity="0.25" fill-rule="evenodd" clip-rule="evenodd" fill="#51B152" d="M662.057,362.397v-5.007l-0.707-0.23l-5.358-1.749
	l-1.431-3.453l2.749-5.816l-3.54-3.54l-0.663,0.336l-5.026,2.553l-3.452-1.43l-2.17-6.058h-5.006l-0.23,0.708l-1.75,5.359
	l-3.451,1.43l-5.818-2.749l-3.539,3.54l0.337,0.663l2.552,5.028l-1.429,3.45l-6.059,2.17v5.007l0.708,0.23l5.359,1.75l1.43,3.452
	l-2.748,5.817l3.538,3.54l0.664-0.337l5.026-2.553l3.452,1.431l2.169,6.057h5.007l0.23-0.707l1.75-5.359l3.452-1.43l5.816,2.749
	l3.54-3.541l-0.336-0.663l-2.553-5.026l1.43-3.452L662.057,362.397z M640.062,367.011c-3.872,0-7.011-3.139-7.011-7.011
	s3.139-7.011,7.011-7.011c3.871,0,7.01,3.139,7.01,7.011S643.933,367.011,640.062,367.011z"/>
<g>
	<g>
		<path fill="#9FD9D8" d="M502.922,98.142c0.756-0.405,1.428-0.903,2.016-1.491s1.057-1.281,1.407-2.078
			c0.35-0.799,0.525-1.688,0.525-2.668c0-2.239-0.75-4.038-2.247-5.396c-1.498-1.358-3.886-2.037-7.161-2.037h-6.216v26.25h1.722
			v-10.92l5.997-0.378l7.106,11.298h1.975l-7.477-11.634C501.382,98.863,502.166,98.548,502.922,98.142z M498.067,97.994l-5.1,0.168
			V86.024h4.257c2.641,0,4.607,0.512,5.9,1.533c1.292,1.022,1.938,2.472,1.938,4.347c0,0.924-0.196,1.758-0.59,2.5
			s-0.921,1.371-1.581,1.89s-1.404,0.924-2.233,1.218S498.967,97.967,498.067,97.994z M529.423,100.767
			c0,2.8-0.637,4.971-1.911,6.511c-1.274,1.539-3.228,2.31-5.858,2.31c-2.576,0-4.516-0.757-5.817-2.269s-1.953-3.584-1.953-6.216
			V84.471h-1.722v16.758c0,3.108,0.812,5.537,2.436,7.287s3.962,2.625,7.015,2.625c1.567,0,2.939-0.245,4.116-0.734
			c1.176-0.49,2.169-1.184,2.981-2.08c0.812-0.895,1.421-1.98,1.827-3.254c0.405-1.274,0.609-2.695,0.609-4.264V84.471h-1.723
			V100.767z M555.295,108.326l-15.839-23.855h-2.053v26.25h1.722V86.907l15.918,24.066h1.974V84.471h-1.722V108.326z
			 M581.797,108.326l-15.839-23.855h-2.053v26.25h1.722V86.907l15.918,24.066h1.974V84.471h-1.722V108.326z M590.407,110.721H605.4
			v-1.555h-13.271V98.373h11.088v-1.555h-11.088V86.024H605.4v-1.554h-14.993V110.721z M620.311,99.087
			c0.812-0.224,1.596-0.539,2.352-0.945c0.756-0.405,1.429-0.903,2.017-1.491s1.057-1.281,1.406-2.078
			c0.351-0.799,0.525-1.688,0.525-2.668c0-2.239-0.749-4.038-2.247-5.396c-1.498-1.358-3.885-2.037-7.161-2.037h-6.216v26.25h1.722
			v-10.92l5.997-0.378l7.107,11.298h1.974L620.311,99.087z M617.808,97.994l-5.1,0.168V86.024h4.258
			c2.641,0,4.606,0.512,5.899,1.533c1.293,1.022,1.939,2.472,1.939,4.347c0,0.924-0.197,1.758-0.591,2.5s-0.92,1.371-1.58,1.89
			s-1.405,0.924-2.234,1.218S618.707,97.967,617.808,97.994z"/>
	</g>
</g>
<g>
	<g>
		<path fill="#9FD9D8" d="M129.163,98.919c0.756-0.405,1.428-0.903,2.016-1.491c0.588-0.588,1.056-1.281,1.407-2.078
			c0.35-0.799,0.525-1.688,0.525-2.668c0-2.239-0.75-4.038-2.247-5.396c-1.498-1.358-3.885-2.037-7.161-2.037h-6.216v26.25h1.722
			v-10.92l5.997-0.378l7.107,11.298h1.974l-7.476-11.634C127.623,99.641,128.407,99.325,129.163,98.919z M124.309,98.771l-5.1,0.168
			V86.802h4.257c2.641,0,4.606,0.512,5.899,1.533c1.293,1.022,1.939,2.472,1.939,4.347c0,0.924-0.197,1.758-0.59,2.5
			c-0.394,0.742-0.92,1.371-1.581,1.89s-1.405,0.924-2.234,1.218C126.071,98.583,125.208,98.744,124.309,98.771z M139.032,111.498
			h14.994v-1.555h-13.272V99.15h11.087v-1.555h-11.087V86.802h13.272v-1.554h-14.994V111.498z M177.504,109.104l-15.838-23.855
			h-2.055v26.25h1.723V87.684l15.918,24.066h1.975V85.248h-1.723V109.104z M202.578,88.839c-1.205-1.134-2.66-2.016-4.368-2.646
			c-1.708-0.63-3.626-0.945-5.755-0.945h-6.342v26.25h6.09c2.213,0,4.193-0.294,5.943-0.882c1.75-0.589,3.234-1.449,4.452-2.583
			c1.218-1.135,2.149-2.527,2.793-4.18c0.644-1.651,0.966-3.541,0.966-5.67c0-1.903-0.329-3.653-0.986-5.25
			C204.713,91.338,203.781,89.973,202.578,88.839z M203.646,103.537c-0.604,1.461-1.453,2.663-2.548,3.604
			c-1.095,0.941-2.394,1.645-3.896,2.107c-1.501,0.465-3.15,0.695-4.946,0.695h-4.421V86.802h4.421c1.937,0,3.663,0.274,5.179,0.823
			c1.516,0.548,2.801,1.328,3.853,2.339c1.053,1.012,1.86,2.228,2.422,3.646c0.562,1.42,0.842,3,0.842,4.742
			C204.552,100.348,204.25,102.076,203.646,103.537z M211.775,111.498h14.994v-1.555h-13.271V99.15h11.088v-1.555h-11.088V86.802
			h13.271v-1.554h-14.994V111.498z M244.031,98.919c0.756-0.405,1.428-0.903,2.016-1.491s1.057-1.281,1.407-2.078
			c0.35-0.799,0.524-1.688,0.524-2.668c0-2.239-0.749-4.038-2.246-5.396c-1.498-1.358-3.885-2.037-7.161-2.037h-6.216v26.25h1.722
			v-10.92l5.997-0.378l7.107,11.298h1.974l-7.476-11.634C242.49,99.641,243.275,99.325,244.031,98.919z M239.177,98.771l-5.1,0.168
			V86.802h4.257c2.641,0,4.607,0.512,5.9,1.533c1.293,1.022,1.938,2.472,1.938,4.347c0,0.924-0.196,1.758-0.59,2.5
			s-0.921,1.371-1.581,1.89s-1.404,0.924-2.234,1.218C240.939,98.583,240.076,98.744,239.177,98.771z M253.9,111.498h14.994v-1.555
			h-13.271V99.15h11.088v-1.555h-11.088V86.802h13.271v-1.554H253.9V111.498z M283.805,99.864c0.811-0.224,1.596-0.539,2.352-0.945
			c0.756-0.405,1.428-0.903,2.016-1.491s1.057-1.281,1.407-2.078c0.35-0.799,0.524-1.688,0.524-2.668
			c0-2.239-0.749-4.038-2.246-5.396c-1.498-1.358-3.885-2.037-7.161-2.037h-6.216v26.25h1.722v-10.92l5.997-0.378l7.107,11.298
			h1.974L283.805,99.864z M281.302,98.771l-5.1,0.168V86.802h4.257c2.641,0,4.607,0.512,5.9,1.533
			c1.293,1.022,1.938,2.472,1.938,4.347c0,0.924-0.196,1.758-0.59,2.5s-0.921,1.371-1.581,1.89s-1.404,0.924-2.234,1.218
			C283.064,98.583,282.201,98.744,281.302,98.771z"/>
	</g>
</g>
<path fill-rule="evenodd" clip-rule="evenodd" fill="none" stroke="#262C35" stroke-width="4" stroke-linecap="round" stroke-miterlimit="10" stroke-dasharray="18" d="
	M369.559,479.003v-272"/>
<g>
	<g>
		<path fill-rule="evenodd" clip-rule="evenodd" fill="#7FBBC6" d="M324.074,245.017l-4.738-2.532
			c-4.788-2.046-2.66-6.689-2.66-6.689l2.569-4.716c0.949-1.745,0.298-3.92-1.454-4.858c-1.754-0.935-3.946-0.279-4.896,1.465
			l-6.512,11.958c-0.951,1.748-0.301,3.922,1.454,4.858l12.796,6.834c1.753,0.938,3.944,0.282,4.896-1.465
			c0.477-0.873,0.551-1.853,0.288-2.731S324.952,245.484,324.074,245.017z M489.578,289.067c-0.994-0.011-1.896,0.384-2.547,1.028
			c-0.652,0.646-1.059,1.543-1.057,2.537l-0.008,5.371c0.443,5.188-4.654,5.493-4.654,5.493l-5.371-0.051
			c-1.986-0.018-3.6,1.578-3.604,3.566c-0.002,1.986,1.607,3.613,3.594,3.633l13.615,0.127c1.99,0.02,3.604-1.576,3.605-3.564
			l0.02-14.508C493.176,290.71,491.566,289.085,489.578,289.067z"/>
	</g>
</g>
<path fill-rule="evenodd" clip-rule="evenodd" fill="none" stroke="#7FBBC6" stroke-width="7" stroke-linecap="round" stroke-miterlimit="10" d="
	M318.755,238.125c0,0,93.381-26.367,165,62"/>
<g>
	<g>
		<path fill-rule="evenodd" clip-rule="evenodd" fill="#7FBBC6" d="M325.816,424.428c0.263-0.879,0.188-1.859-0.288-2.732
			c-0.951-1.746-3.143-2.402-4.896-1.465l-12.796,6.834c-1.754,0.937-2.405,3.11-1.454,4.858l6.512,11.958
			c0.949,1.744,3.142,2.4,4.896,1.465c1.752-0.938,2.403-3.112,1.454-4.857l-2.569-4.716c0,0-2.127-4.643,2.66-6.688l4.738-2.533
			C324.952,426.084,325.553,425.307,325.816,424.428z M493.172,378.869l-0.02-14.508c-0.002-1.988-1.615-3.584-3.605-3.564
			l-13.615,0.127c-1.986,0.02-3.596,1.646-3.594,3.633c0.004,1.988,1.617,3.584,3.604,3.566l5.371-0.051
			c0,0,5.098,0.305,4.654,5.492l0.008,5.371c-0.002,0.994,0.404,1.891,1.057,2.537c0.65,0.645,1.553,1.039,2.547,1.029
			C491.566,382.482,493.176,380.857,493.172,378.869z"/>
	</g>
</g>
<path fill-rule="evenodd" clip-rule="evenodd" fill="none" stroke="#7FBBC6" stroke-width="7" stroke-linecap="round" stroke-miterlimit="10" d="
	M483.756,371.119c-71.619,88.367-165,62-165,62"/>
<path fill-rule="evenodd" clip-rule="evenodd" fill="#F6EE61" d="M168.494,250.508c-2.203-3.029-5.789-5.008-9.851-5.008
	c-6.704,0-12.138,5.373-12.138,12c0,6.627,5.434,12,12.138,12c3.89,0,7.341-1.815,9.563-4.627l-9.746-7.727L168.494,250.508z
	 M157.082,249.336c0-0.753,0.618-1.363,1.379-1.363c0.762,0,1.379,0.61,1.379,1.363c0,0.751-0.617,1.362-1.379,1.362
	C157.7,250.698,157.082,250.087,157.082,249.336z"/>
<g>
	<g>
		<path fill-rule="evenodd" clip-rule="evenodd" fill="#B1A25B" d="M224,253.5c-1.934,0-3.5,1.567-3.5,3.5s1.566,3.5,3.5,3.5
			s3.5-1.567,3.5-3.5S225.934,253.5,224,253.5z M204,253.5c-1.934,0-3.5,1.567-3.5,3.5s1.566,3.5,3.5,3.5s3.5-1.567,3.5-3.5
			S205.934,253.5,204,253.5z M184,253.5c-1.934,0-3.5,1.567-3.5,3.5s1.566,3.5,3.5,3.5s3.5-1.567,3.5-3.5S185.934,253.5,184,253.5z"
			/>
	</g>
</g>
<path fill-rule="evenodd" clip-rule="evenodd" fill="#F5919F" d="M256.5,246.5c-5.524,0-10.002,4.556-10.002,10.174V267.5h3.279
	v-1.994h2.787v1.994h2.568v-1.994h2.787v1.994h2.568v-1.994h2.787v1.994h3.227v-10.825C266.502,251.056,262.024,246.5,256.5,246.5z
	 M253.802,254.902h-1.461v4.266H251v-5.629h2.802V254.902z M261.999,254.902h-1.461v4.266h-1.341v-5.629h2.802V254.902z"/>
<path fill-rule="evenodd" clip-rule="evenodd" fill="#F6EE61" d="M199.365,475.337c-3.029,2.203-5.008,5.789-5.008,9.851
	c0,6.704,5.372,12.138,11.999,12.138c6.628,0,12-5.434,12-12.138c0-3.89-1.815-7.341-4.627-9.563l-7.727,9.746L199.365,475.337z
	 M198.193,486.749c-0.754,0-1.363-0.618-1.363-1.379c0-0.762,0.609-1.379,1.363-1.379c0.751,0,1.361,0.617,1.361,1.379
	C199.555,486.131,198.944,486.749,198.193,486.749z"/>
<g>
	<g>
		<circle fill-rule="evenodd" clip-rule="evenodd" fill="#B1A25B" cx="206.357" cy="458.502" r="3.5"/>
	</g>
</g>
<path fill-rule="evenodd" clip-rule="evenodd" fill="#F5919F" d="M206.357,419.803c-5.524,0-10.002,4.555-10.002,10.174v10.825
	h3.279v-1.993h2.787v1.993h2.568v-1.993h2.787v1.993h2.568v-1.993h2.787v1.993h3.227v-10.825
	C216.359,424.357,211.881,419.803,206.357,419.803z M203.659,428.205h-1.461v4.266h-1.341v-5.629h2.802V428.205z M211.856,428.205
	h-1.461v4.266h-1.341v-5.629h2.802V428.205z"/>
<g>
	<g>
		<path fill="#D1C05A" d="M548.993,465.948c-0.748,0-1.632,0.221-2.652,0.663c-1.02,0.442-1.983,1.128-2.89,2.057v-2.72
			l-1.394,0.442v15.47h1.394v-11.962c0.861-0.863,1.751-1.527,2.669-1.993s1.819-0.699,2.703-0.699c1.27,0,2.198,0.369,2.788,1.108
			c0.589,0.738,0.884,1.801,0.884,3.186v10.36h1.395v-10.642c0-1.723-0.432-3.031-1.292-3.928
			C551.735,466.396,550.534,465.948,548.993,465.948z M570.753,468.124c-0.68-0.702-1.474-1.24-2.38-1.614
			c-0.907-0.374-1.893-0.562-2.958-0.562c-1.043,0-2.029,0.199-2.958,0.595c-0.93,0.397-1.746,0.952-2.448,1.666
			c-0.703,0.715-1.253,1.576-1.648,2.584c-0.397,1.009-0.596,2.125-0.596,3.35c0,1.224,0.192,2.335,0.578,3.332
			s0.918,1.848,1.598,2.55c0.681,0.703,1.479,1.241,2.397,1.615s1.898,0.561,2.941,0.561c1.064,0,2.057-0.198,2.975-0.595
			s1.729-0.952,2.431-1.666c0.703-0.714,1.253-1.575,1.649-2.584s0.595-2.125,0.595-3.349c0-1.225-0.192-2.335-0.578-3.332
			C571.965,469.677,571.433,468.827,570.753,468.124z M571.059,476.828c-0.317,0.839-0.748,1.564-1.292,2.176
			c-0.544,0.612-1.195,1.089-1.955,1.429c-0.759,0.34-1.581,0.51-2.465,0.51s-1.705-0.158-2.465-0.476s-1.417-0.771-1.972-1.36
			c-0.556-0.589-0.986-1.31-1.292-2.159c-0.307-0.85-0.459-1.808-0.459-2.873c0-0.997,0.158-1.915,0.476-2.754
			c0.317-0.838,0.748-1.563,1.292-2.176s1.195-1.088,1.955-1.428c0.76-0.341,1.581-0.511,2.465-0.511s1.706,0.159,2.465,0.477
			c0.76,0.317,1.411,0.771,1.955,1.359c0.544,0.59,0.975,1.31,1.292,2.159c0.317,0.851,0.477,1.808,0.477,2.873
			C571.535,475.072,571.376,475.99,571.059,476.828z M587.617,467.309c-0.522-0.317-1.162-0.596-1.921-0.833
			c-0.76-0.238-1.525-0.357-2.296-0.357c-1.088,0-2.085,0.193-2.991,0.578c-0.907,0.386-1.695,0.936-2.363,1.649
			c-0.669,0.714-1.19,1.575-1.564,2.584s-0.561,2.137-0.561,3.383c0,1.179,0.175,2.256,0.527,3.229
			c0.351,0.976,0.838,1.809,1.462,2.499c0.623,0.692,1.365,1.225,2.227,1.599s1.79,0.561,2.788,0.561
			c1.02,0,1.938-0.198,2.754-0.595s1.462-0.821,1.938-1.275v1.53h1.394v-23.358l-1.394,0.442V467.309z M587.617,478.941
			c-0.592,0.565-1.291,1.04-2.099,1.425s-1.644,0.576-2.507,0.576c-0.864,0-1.649-0.17-2.354-0.509s-1.302-0.809-1.791-1.407
			c-0.488-0.6-0.869-1.3-1.143-2.103c-0.272-0.803-0.409-1.679-0.409-2.629c0-1.04,0.148-1.983,0.444-2.832
			c0.295-0.848,0.705-1.576,1.228-2.188c0.522-0.61,1.148-1.079,1.876-1.407c0.728-0.327,1.535-0.492,2.422-0.492
			c0.796,0,1.593,0.119,2.389,0.356c0.796,0.238,1.443,0.549,1.944,0.933V478.941z M604.957,469.076
			c-0.272-0.657-0.652-1.218-1.14-1.683s-1.06-0.821-1.717-1.071c-0.657-0.249-1.371-0.374-2.142-0.374
			c-1.021,0-1.955,0.204-2.806,0.612c-0.85,0.408-1.586,0.98-2.21,1.717c-0.623,0.737-1.104,1.604-1.444,2.601
			c-0.34,0.998-0.51,2.086-0.51,3.265s0.17,2.261,0.51,3.247c0.341,0.985,0.818,1.836,1.431,2.55
			c0.613,0.714,1.356,1.27,2.231,1.666c0.874,0.396,1.845,0.595,2.912,0.595c0.953,0,1.833-0.125,2.64-0.374
			c0.806-0.249,1.515-0.566,2.128-0.952l-0.306-1.258c-0.57,0.372-1.22,0.687-1.949,0.942s-1.538,0.384-2.427,0.384
			s-1.691-0.171-2.409-0.512c-0.719-0.342-1.328-0.82-1.829-1.436c-0.502-0.615-0.883-1.344-1.145-2.187
			c-0.263-0.843-0.394-1.753-0.394-2.732v-0.239l10.641-0.068c0.091-0.34,0.171-0.736,0.239-1.19
			c0.067-0.453,0.103-0.872,0.103-1.258C605.365,470.482,605.229,469.734,604.957,469.076z M603.869,472.578h-9.385
			c0.251-1.597,0.856-2.891,1.815-3.883c0.959-0.993,2.169-1.489,3.63-1.489c1.256,0,2.243,0.394,2.962,1.181
			c0.72,0.787,1.079,1.797,1.079,3.028C603.971,471.803,603.937,472.19,603.869,472.578z"/>
	</g>
</g>
</svg>
