<?xml version="1.0" encoding="utf-8"?>
<!-- Generator: Adobe Illustrator 16.0.0, SVG Export Plug-In . SVG Version: 6.00 Build 0)  -->
<!DOCTYPE svg PUBLIC "-//W3C//DTD SVG 1.1//EN" "http://www.w3.org/Graphics/SVG/1.1/DTD/svg11.dtd">
<svg version="1.1" id="Layer_1" xmlns="http://www.w3.org/2000/svg" xmlns:xlink="http://www.w3.org/1999/xlink" x="0px" y="0px"
	 width="300px" height="220px" viewBox="0 0 300 220" enable-background="new 0 0 300 220" xml:space="preserve">
<path fill-rule="evenodd" clip-rule="evenodd" fill="#4D9041" d="M225.127,89.582V77.708l-1.681-0.548l-12.736-4.149l-3.399-8.19
	l6.533-13.796l-8.415-8.396l-1.575,0.798l-11.946,6.055l-8.205-3.392l-5.157-14.368h-11.897l-0.548,1.678l-4.158,12.712
	l-8.202,3.391l-13.828-6.52l-8.412,8.397l0.8,1.572l6.066,11.926l-3.396,8.186l-14.398,5.145v11.877l1.682,0.547l12.737,4.15
	l3.398,8.188l-6.532,13.798l8.411,8.397l1.577-0.8l11.947-6.054l8.204,3.392l5.154,14.367h11.898l0.55-1.678l4.159-12.711
	l8.204-3.393l13.824,6.521l8.414-8.399l-0.8-1.573l-6.066-11.921l3.398-8.189L225.127,89.582z M172.85,100.524
	c-9.201,0-16.661-7.445-16.661-16.629s7.46-16.628,16.661-16.628s16.66,7.444,16.66,16.628S182.051,100.524,172.85,100.524z"/>
<path fill-rule="evenodd" clip-rule="evenodd" fill="#56A045" d="M251.273,153.91v-6.976l-0.987-0.322l-7.483-2.438l-1.997-4.812
	l3.839-8.104l-4.944-4.934l-0.926,0.47l-7.018,3.557l-4.82-1.992l-3.03-8.441h-6.989l-0.322,0.986l-2.443,7.468l-4.818,1.992
	l-8.124-3.83l-4.942,4.934l0.47,0.924l3.564,7.006l-1.995,4.809l-8.46,3.023v6.978l0.988,0.321l7.483,2.438l1.996,4.811
	l-3.837,8.106l4.941,4.934l0.927-0.47l7.019-3.557l4.819,1.992l3.029,8.44h6.99l0.323-0.985l2.442-7.468l4.82-1.993l8.122,3.831
	l4.943-4.934l-0.47-0.925l-3.564-7.004l1.996-4.811L251.273,153.91z M220.56,160.339c-5.405,0-9.788-4.374-9.788-9.769
	c0-5.396,4.383-9.77,9.788-9.77c5.406,0,9.788,4.374,9.788,9.77C230.348,155.965,225.966,160.339,220.56,160.339z"/>
<path fill-rule="evenodd" clip-rule="evenodd" fill="#5CA745" d="M285.39,122.314v-5.007l-0.707-0.23l-5.358-1.749l-1.431-3.453
	l2.749-5.816l-3.54-3.54l-0.663,0.336l-5.026,2.553l-3.452-1.43l-2.17-6.058h-5.006l-0.23,0.708l-1.75,5.359l-3.451,1.43
	l-5.818-2.749l-3.539,3.54l0.337,0.663l2.552,5.028l-1.429,3.45l-6.059,2.17v5.007l0.708,0.23l5.359,1.75l1.43,3.452l-2.748,5.817
	l3.538,3.54l0.664-0.337l5.026-2.553l3.452,1.431l2.169,6.057h5.007l0.23-0.707l1.75-5.359l3.452-1.43l5.816,2.749l3.54-3.541
	l-0.336-0.663l-2.553-5.026l1.43-3.452L285.39,122.314z M263.395,126.928c-3.872,0-7.011-3.139-7.011-7.011s3.139-7.011,7.011-7.011
	c3.871,0,7.01,3.139,7.01,7.011S267.266,126.928,263.395,126.928z"/>
<g>
	<path fill="#FFFFFF" d="M24.932,141.914h-10.23v-30.162l10.23-1.254v4.488c1.804-3.168,4.268-4.752,7.392-4.752
		c1.759,0,3.454,0.418,5.082,1.254l-2.046,8.976c-1.232-0.615-2.508-0.924-3.828-0.924c-1.277,0-2.465,0.341-3.564,1.022
		c-1.1,0.684-2.112,1.838-3.036,3.465V141.914z"/>
	<path fill="#FFFFFF" d="M51.199,111.225v18.149c0,1.849,0.368,3.136,1.106,3.86c0.737,0.727,1.757,1.09,3.059,1.09
		c1.084,0,2.06-0.198,2.928-0.594c0.868-0.396,1.605-0.88,2.213-1.453v-21.053h10.23v30.228l-10.23,1.254v-4.554
		c-1.184,1.276-2.631,2.387-4.341,3.332c-1.71,0.946-3.573,1.42-5.59,1.42c-3.027,0-5.384-0.936-7.072-2.805
		c-1.688-1.87-2.532-4.455-2.532-7.756v-21.119H51.199z"/>
	<path fill="#FFFFFF" d="M97.993,141.914v-18.15c0-1.848-0.38-3.123-1.14-3.828c-0.76-0.703-1.813-1.056-3.159-1.056
		c-1.128,0-2.159,0.231-3.093,0.693c-0.934,0.462-1.726,1.001-2.377,1.616v20.725h-10.23v-30.162l10.23-1.254l-0.066,5.016
		c1.355-1.539,2.906-2.805,4.655-3.795s3.607-1.484,5.575-1.484c3.1,0,5.514,0.936,7.243,2.805c1.727,1.871,2.591,4.455,2.591,7.755
		v21.12H97.993z"/>
	<path fill="#FFFFFF" d="M135.282,141.914v-18.15c0-1.848-0.381-3.123-1.14-3.828c-0.76-0.703-1.812-1.056-3.158-1.056
		c-1.129,0-2.16,0.231-3.093,0.693c-0.935,0.462-1.727,1.001-2.377,1.616v20.725h-10.23v-30.162l10.23-1.254l-0.066,5.016
		c1.355-1.539,2.906-2.805,4.655-3.795s3.607-1.484,5.575-1.484c3.1,0,5.514,0.936,7.242,2.805c1.728,1.871,2.592,4.455,2.592,7.755
		v21.12H135.282z"/>
	<path fill="#FFFFFF" d="M160.889,128.979c0.176,2.068,0.945,3.662,2.311,4.785c1.363,1.121,3.299,1.683,5.809,1.683
		c1.67,0,3.375-0.274,5.113-0.825c1.738-0.55,3.377-1.264,4.918-2.145l0.99,7.854c-1.541,0.792-3.355,1.408-5.445,1.848
		s-4.258,0.66-6.502,0.66c-2.596,0-4.949-0.353-7.061-1.056c-2.113-0.704-3.918-1.737-5.412-3.103
		c-1.496-1.363-2.652-3.046-3.465-5.049c-0.814-2.002-1.221-4.278-1.221-6.83c0-2.509,0.406-4.785,1.221-6.832
		c0.812-2.046,1.957-3.783,3.432-5.214c1.473-1.429,3.234-2.541,5.279-3.333c2.047-0.792,4.279-1.188,6.699-1.188
		c4.355,0,7.689,1.188,10,3.563c2.309,2.376,3.465,5.478,3.465,9.306c0,0.837-0.057,1.783-0.166,2.838
		c-0.109,1.057-0.275,1.914-0.494,2.574l-19.471,0.33V128.979z M171.58,123.698v-0.595c0-1.848-0.385-3.288-1.154-4.322
		c-0.77-1.033-1.947-1.551-3.531-1.551c-1.76,0-3.146,0.649-4.158,1.947s-1.605,2.827-1.781,4.586L171.58,123.698z"/>
	<path fill="#FFFFFF" d="M196.99,141.914h-10.23v-30.162l10.23-1.254v4.488c1.805-3.168,4.268-4.752,7.393-4.752
		c1.76,0,3.453,0.418,5.082,1.254l-2.047,8.976c-1.232-0.615-2.508-0.924-3.828-0.924c-1.275,0-2.465,0.341-3.562,1.022
		c-1.102,0.684-2.113,1.838-3.037,3.465V141.914z"/>
</g>
</svg>
