<?xml version="1.0" encoding="utf-8"?>
<!-- Generator: Adobe Illustrator 16.0.0, SVG Export Plug-In . SVG Version: 6.00 Build 0)  -->
<!DOCTYPE svg PUBLIC "-//W3C//DTD SVG 1.1//EN" "http://www.w3.org/Graphics/SVG/1.1/DTD/svg11.dtd">
<svg version="1.1" id="Layer_1" xmlns="http://www.w3.org/2000/svg" xmlns:xlink="http://www.w3.org/1999/xlink" x="0px" y="0px"
	 width="800px" height="600px" viewBox="0 0 800 600" enable-background="new 0 0 800 600" xml:space="preserve">
<path fill-rule="evenodd" clip-rule="evenodd" fill="#52B152" d="M570.249,192.356v-8.276l-1.171-0.381l-8.877-2.893l-2.369-5.708
	l4.553-9.616l-5.865-5.852l-1.098,0.557l-8.326,4.22l-5.719-2.364l-3.594-10.014h-8.293l-0.382,1.169l-2.897,8.86l-5.717,2.364
	l-9.639-4.544l-5.862,5.852l0.558,1.096l4.228,8.312l-2.367,5.704l-10.035,3.586v8.277l1.172,0.381l8.878,2.893l2.368,5.707
	l-4.553,9.617l5.862,5.853l1.1-0.558l8.327-4.219l5.718,2.364l3.592,10.014h8.293l0.384-1.169l2.898-8.859l5.718-2.364l9.636,4.545
	l5.864-5.854l-0.558-1.096l-4.228-8.309l2.368-5.708L570.249,192.356z M533.813,199.983c-6.413,0-11.612-5.189-11.612-11.59
	s5.199-11.589,11.612-11.589s11.611,5.189,11.611,11.589S540.227,199.983,533.813,199.983z"/>
<path opacity="0.5" fill-rule="evenodd" clip-rule="evenodd" fill="#52B152" d="M594.144,158.569v-3.783l-0.536-0.174l-4.058-1.322
	l-1.083-2.61l2.082-4.395l-2.682-2.675l-0.502,0.254l-3.806,1.929l-2.613-1.081l-1.644-4.578h-3.79l-0.175,0.535l-1.325,4.05
	l-2.613,1.08l-4.405-2.077l-2.68,2.675l0.254,0.501l1.934,3.799l-1.083,2.608l-4.587,1.639v3.784l0.535,0.174l4.059,1.322
	l1.082,2.609l-2.08,4.396l2.68,2.675l0.503-0.255l3.806-1.929l2.613,1.081l1.644,4.577h3.79l0.176-0.534l1.324-4.05l2.613-1.081
	l4.405,2.078l2.681-2.675l-0.255-0.501l-1.933-3.798l1.082-2.609L594.144,158.569z M577.487,162.055
	c-2.931,0-5.308-2.372-5.308-5.297s2.377-5.298,5.308-5.298c2.932,0,5.309,2.372,5.309,5.298S580.419,162.055,577.487,162.055z"/>
<path fill-rule="evenodd" clip-rule="evenodd" fill="#2D627D" d="M427.38,107.431H66.625c-3.93,0-7.125,3.186-7.125,7.124v412.887
	c0,3.935,3.195,7.127,7.125,7.127H427.38c3.934,0,7.119-3.192,7.119-7.127V114.555C434.499,110.616,431.313,107.431,427.38,107.431z
	 M102.681,114.513c2.736,0,4.958,2.224,4.958,4.962c0,2.739-2.223,4.962-4.958,4.962c-2.74,0-4.958-2.224-4.958-4.962
	C97.723,116.736,99.94,114.513,102.681,114.513z M86.876,114.513c2.737,0,4.96,2.224,4.96,4.962c0,2.739-2.223,4.962-4.96,4.962
	c-2.74,0-4.958-2.224-4.958-4.962C81.917,116.736,84.136,114.513,86.876,114.513z M66.117,119.475c0-2.738,2.218-4.962,4.958-4.962
	c2.735,0,4.958,2.224,4.958,4.962c0,2.739-2.223,4.962-4.958,4.962C68.335,124.437,66.117,122.213,66.117,119.475z M426.945,526.537
	H67.061V129.63h359.885V526.537z"/>
<g>
	<g>
		<path fill-rule="evenodd" clip-rule="evenodd" fill="#7FBCC7" d="M480.854,186.597l-10.221-10.229
			c-1.399-1.402-3.669-1.402-5.07,0c-0.701,0.7-1.052,1.619-1.052,2.537c0,0.919,0.351,1.839,1.052,2.538l3.771,3.775h-80.436
			l3.813-3.781c1.409-1.4,1.409-3.67,0-5.071c-1.412-1.398-3.701-1.398-5.11,0l-9.667,9.589c-1.412,1.402-1.412,3.672,0,5.07
			l10.299,10.217c1.41,1.401,3.697,1.401,5.109,0c0.707-0.699,1.06-1.617,1.06-2.534s-0.353-1.836-1.06-2.535l-3.813-3.783h80.451
			l-0.007,0.021l-3.784,3.785c-1.398,1.401-1.398,3.675,0,5.077c1.401,1.399,3.673,1.399,5.071,0l9.594-9.601
			C482.256,190.27,482.256,187.997,480.854,186.597z"/>
	</g>
</g>
<g>
	<g>
		<path fill="#86BBC8" d="M616.521,186.959c0.649-0.93,0.975-2.024,0.975-3.285c0-1.819-0.64-3.264-1.92-4.334
			s-3.17-1.605-5.67-1.605h-7.53v18.75h4.771v-6.12l2.19-0.18l3.75,6.3h5.369l-4.8-7.41
			C614.915,188.594,615.87,187.89,616.521,186.959z M611.796,186.015c-0.54,0.44-1.32,0.7-2.341,0.78l-2.399,0.06v-5.31h2.01
			c2.359,0,3.54,0.82,3.54,2.459C612.605,184.904,612.336,185.574,611.796,186.015z M632.345,188.805c0,1.46-0.282,2.51-0.848,3.15
			c-0.565,0.64-1.413,0.959-2.543,0.959c-1.249,0-2.162-0.359-2.736-1.08c-0.575-0.72-0.862-1.789-0.862-3.209v-10.891h-4.771v11.52
			c0,1.32,0.2,2.461,0.601,3.42c0.399,0.961,0.965,1.756,1.694,2.386c0.73,0.63,1.601,1.101,2.61,1.409
			c1.01,0.311,2.125,0.466,3.345,0.466c1.26,0,2.4-0.165,3.42-0.495c1.021-0.33,1.891-0.835,2.61-1.516
			c0.72-0.68,1.275-1.524,1.665-2.534s0.585-2.194,0.585-3.556v-11.1h-4.771V188.805z M653.825,189.914l-7.8-12.18h-5.16v18.75h4.47
			v-12.15l7.89,12.33h5.07v-18.93h-4.47V189.914z M675.155,189.914l-7.8-12.18h-5.16v18.75h4.47v-12.15l7.89,12.33h5.07v-18.93
			h-4.47V189.914z M683.525,196.484h13.71v-3.811h-9.03v-3.689h7.26v-3.811h-7.26v-3.629h9.03v-3.811h-13.71V196.484z
			 M714.62,186.959c0.649-0.93,0.975-2.024,0.975-3.285c0-1.819-0.641-3.264-1.92-4.334c-1.28-1.07-3.17-1.605-5.67-1.605h-7.53
			v18.75h4.771v-6.12l2.189-0.18l3.75,6.3h5.37l-4.8-7.41C713.015,188.594,713.97,187.89,714.62,186.959z M709.895,186.015
			c-0.54,0.44-1.32,0.7-2.34,0.78l-2.4,0.06v-5.31h2.011c2.359,0,3.54,0.82,3.54,2.459
			C710.705,184.904,710.435,185.574,709.895,186.015z M724.294,179.475l0.12,3.81l4.23-0.899v14.1h4.59v-18.84L724.294,179.475z"/>
	</g>
</g>
<path fill-rule="evenodd" clip-rule="evenodd" fill="#52B152" d="M570.249,327.356v-8.276l-1.171-0.381l-8.877-2.893l-2.369-5.709
	l4.553-9.615l-5.865-5.852l-1.098,0.557l-8.326,4.22l-5.719-2.364l-3.594-10.014h-8.293l-0.382,1.169l-2.897,8.86l-5.717,2.363
	l-9.639-4.543l-5.862,5.852l0.558,1.096l4.228,8.312l-2.367,5.704l-10.035,3.587v8.277l1.172,0.381l8.878,2.893l2.368,5.707
	l-4.553,9.616l5.862,5.853l1.1-0.557l8.327-4.22l5.718,2.364l3.592,10.014h8.293l0.384-1.17l2.898-8.859l5.718-2.364l9.636,4.546
	l5.864-5.855l-0.558-1.096l-4.228-8.309l2.368-5.708L570.249,327.356z M533.813,334.982c-6.413,0-11.612-5.189-11.612-11.59
	s5.199-11.589,11.612-11.589s11.611,5.188,11.611,11.589S540.227,334.982,533.813,334.982z"/>
<path opacity="0.5" fill-rule="evenodd" clip-rule="evenodd" fill="#52B152" d="M594.144,293.568v-3.783l-0.536-0.174l-4.058-1.322
	l-1.083-2.609l2.082-4.396l-2.682-2.675l-0.502,0.254l-3.806,1.929l-2.613-1.081l-1.644-4.578h-3.79l-0.175,0.535l-1.325,4.05
	l-2.613,1.08l-4.405-2.077l-2.68,2.675l0.254,0.501l1.934,3.799l-1.083,2.608l-4.587,1.64v3.783l0.535,0.175l4.059,1.321
	l1.082,2.609l-2.08,4.396l2.68,2.675l0.503-0.255l3.806-1.929l2.613,1.081l1.644,4.576h3.79l0.176-0.533l1.324-4.051l2.613-1.08
	l4.405,2.077l2.681-2.675l-0.255-0.502l-1.933-3.799l1.082-2.608L594.144,293.568z M577.487,297.055
	c-2.931,0-5.308-2.371-5.308-5.297s2.377-5.299,5.308-5.299c2.932,0,5.309,2.373,5.309,5.299S580.419,297.055,577.487,297.055z"/>
<g>
	<g>
		<path fill-rule="evenodd" clip-rule="evenodd" fill="#C3C88C" d="M480.854,321.597l-10.221-10.229
			c-1.399-1.402-3.669-1.402-5.07,0c-0.701,0.7-1.052,1.619-1.052,2.537c0,0.919,0.351,1.839,1.052,2.538l3.771,3.775h-80.436
			l3.813-3.781c1.409-1.4,1.409-3.67,0-5.071c-1.412-1.398-3.701-1.398-5.11,0l-9.667,9.589c-1.412,1.402-1.412,3.672,0,5.07
			l10.299,10.217c1.41,1.401,3.697,1.401,5.109,0c0.707-0.699,1.06-1.617,1.06-2.534s-0.353-1.836-1.06-2.535l-3.813-3.783h80.451
			l-0.007,0.021l-3.784,3.785c-1.398,1.401-1.398,3.675,0,5.077c1.401,1.399,3.673,1.399,5.071,0l9.594-9.601
			C482.256,325.27,482.256,322.997,480.854,321.597z"/>
	</g>
</g>
<g>
	<g>
		<path fill="#C3C88C" d="M616.521,323.534c0.649-0.93,0.975-2.024,0.975-3.284c0-1.82-0.64-3.266-1.92-4.335
			c-1.28-1.07-3.17-1.605-5.67-1.605h-7.53v18.75h4.771v-6.12l2.19-0.18l3.75,6.3h5.369l-4.8-7.41
			C614.915,325.17,615.87,324.465,616.521,323.534z M611.796,322.59c-0.54,0.439-1.32,0.7-2.341,0.779l-2.399,0.061v-5.311h2.01
			c2.359,0,3.54,0.82,3.54,2.46C612.605,321.479,612.336,322.149,611.796,322.59z M632.345,325.38c0,1.46-0.282,2.51-0.848,3.149
			c-0.565,0.641-1.413,0.96-2.543,0.96c-1.249,0-2.162-0.359-2.736-1.08c-0.575-0.72-0.862-1.789-0.862-3.21v-10.89h-4.771v11.52
			c0,1.32,0.2,2.461,0.601,3.421c0.399,0.96,0.965,1.755,1.694,2.385c0.73,0.63,1.601,1.1,2.61,1.41
			c1.01,0.31,2.125,0.465,3.345,0.465c1.26,0,2.4-0.165,3.42-0.495c1.021-0.33,1.891-0.835,2.61-1.515s1.275-1.525,1.665-2.535
			s0.585-2.195,0.585-3.556v-11.1h-4.771V325.38z M653.825,326.489l-7.8-12.18h-5.16v18.75h4.47v-12.15l7.89,12.33h5.07v-18.93
			h-4.47V326.489z M675.155,326.489l-7.8-12.18h-5.16v18.75h4.47v-12.15l7.89,12.33h5.07v-18.93h-4.47V326.489z M683.525,333.06
			h13.71v-3.81h-9.03v-3.69h7.26v-3.81h-7.26v-3.631h9.03v-3.81h-13.71V333.06z M714.62,323.534c0.649-0.93,0.975-2.024,0.975-3.284
			c0-1.82-0.641-3.266-1.92-4.335c-1.28-1.07-3.17-1.605-5.67-1.605h-7.53v18.75h4.771v-6.12l2.189-0.18l3.75,6.3h5.37l-4.8-7.41
			C713.015,325.17,713.97,324.465,714.62,323.534z M709.895,322.59c-0.54,0.439-1.32,0.7-2.34,0.779l-2.4,0.061v-5.311h2.011
			c2.359,0,3.54,0.82,3.54,2.46C710.705,321.479,710.435,322.149,709.895,322.59z M736.055,329.34h-7.83
			c1.239-1.061,2.319-2.011,3.239-2.851s1.69-1.64,2.311-2.399c0.619-0.76,1.08-1.505,1.38-2.235c0.3-0.729,0.45-1.495,0.45-2.295
			c0-0.76-0.136-1.47-0.405-2.13s-0.67-1.234-1.2-1.726c-0.53-0.489-1.18-0.874-1.95-1.154c-0.77-0.28-1.665-0.42-2.685-0.42
			c-1.2,0-2.351,0.215-3.45,0.645c-1.1,0.431-2.04,0.945-2.82,1.545l1.41,3.3c0.58-0.499,1.22-0.915,1.92-1.244
			c0.7-0.33,1.42-0.495,2.16-0.495c0.76,0,1.37,0.225,1.83,0.675s0.69,1.016,0.69,1.695c0,0.64-0.155,1.255-0.466,1.845
			c-0.31,0.59-0.79,1.24-1.439,1.95c-0.65,0.71-1.476,1.525-2.475,2.444c-1.001,0.921-2.19,2.04-3.57,3.36l0.09,3.21h12.9
			L736.055,329.34z"/>
	</g>
</g>
<path fill-rule="evenodd" clip-rule="evenodd" fill="#52B152" d="M570.249,460.736v-8.276l-1.171-0.381l-8.877-2.893l-2.369-5.709
	l4.553-9.615l-5.865-5.852l-1.098,0.557l-8.326,4.22l-5.719-2.364l-3.594-10.014h-8.293l-0.382,1.169l-2.897,8.86l-5.717,2.363
	l-9.639-4.543l-5.862,5.852l0.558,1.096l4.228,8.312l-2.367,5.704l-10.035,3.587v8.277l1.172,0.381l8.878,2.893l2.368,5.707
	l-4.553,9.616l5.862,5.853l1.1-0.557l8.327-4.22l5.718,2.364l3.592,10.014h8.293l0.384-1.17l2.898-8.859l5.718-2.364l9.636,4.546
	l5.864-5.855l-0.558-1.096l-4.228-8.309l2.368-5.708L570.249,460.736z M533.813,468.362c-6.413,0-11.612-5.189-11.612-11.59
	s5.199-11.589,11.612-11.589s11.611,5.188,11.611,11.589S540.227,468.362,533.813,468.362z"/>
<path opacity="0.5" fill-rule="evenodd" clip-rule="evenodd" fill="#52B152" d="M594.144,426.948v-3.783l-0.536-0.174l-4.058-1.322
	l-1.083-2.609l2.082-4.396l-2.682-2.676l-0.502,0.255l-3.806,1.929l-2.613-1.08l-1.644-4.578h-3.79l-0.175,0.535l-1.325,4.051
	l-2.613,1.08l-4.405-2.078l-2.68,2.676l0.254,0.501l1.934,3.799l-1.083,2.608l-4.587,1.64v3.783l0.535,0.175l4.059,1.321
	l1.082,2.609l-2.08,4.396l2.68,2.675l0.503-0.255l3.806-1.929l2.613,1.081l1.644,4.576h3.79l0.176-0.533l1.324-4.051l2.613-1.08
	l4.405,2.077l2.681-2.675l-0.255-0.502l-1.933-3.799l1.082-2.608L594.144,426.948z M577.487,430.435
	c-2.931,0-5.308-2.371-5.308-5.297s2.377-5.299,5.308-5.299c2.932,0,5.309,2.373,5.309,5.299S580.419,430.435,577.487,430.435z"/>
<g>
	<g>
		<path fill-rule="evenodd" clip-rule="evenodd" fill="#CE8486" d="M480.854,454.977l-10.221-10.229
			c-1.399-1.402-3.669-1.402-5.07,0c-0.701,0.7-1.052,1.619-1.052,2.537c0,0.919,0.351,1.839,1.052,2.538l3.771,3.775h-80.436
			l3.813-3.781c1.409-1.4,1.409-3.67,0-5.071c-1.412-1.398-3.701-1.398-5.11,0l-9.667,9.589c-1.412,1.402-1.412,3.672,0,5.07
			l10.299,10.217c1.41,1.401,3.697,1.401,5.109,0c0.707-0.699,1.06-1.617,1.06-2.534s-0.353-1.836-1.06-2.535l-3.813-3.783h80.451
			l-0.007,0.021l-3.784,3.785c-1.398,1.401-1.398,3.675,0,5.077c1.401,1.399,3.673,1.399,5.071,0l9.594-9.601
			C482.256,458.649,482.256,456.377,480.854,454.977z"/>
	</g>
</g>
<g>
	<g>
		<path fill="#CE8486" d="M616.521,456.488c0.649-0.93,0.975-2.024,0.975-3.284c0-1.82-0.64-3.266-1.92-4.335
			c-1.28-1.07-3.17-1.605-5.67-1.605h-7.53v18.75h4.771v-6.12l2.19-0.18l3.75,6.3h5.369l-4.8-7.41
			C614.915,458.124,615.87,457.419,616.521,456.488z M611.796,455.544c-0.54,0.439-1.32,0.7-2.341,0.779l-2.399,0.061v-5.311h2.01
			c2.359,0,3.54,0.82,3.54,2.461C612.605,454.434,612.336,455.104,611.796,455.544z M632.345,458.334c0,1.46-0.282,2.51-0.848,3.149
			c-0.565,0.641-1.413,0.96-2.543,0.96c-1.249,0-2.162-0.359-2.736-1.08c-0.575-0.72-0.862-1.789-0.862-3.21v-10.89h-4.771v11.521
			c0,1.319,0.2,2.46,0.601,3.42c0.399,0.96,0.965,1.755,1.694,2.385c0.73,0.63,1.601,1.1,2.61,1.41
			c1.01,0.31,2.125,0.465,3.345,0.465c1.26,0,2.4-0.165,3.42-0.495c1.021-0.33,1.891-0.835,2.61-1.515s1.275-1.525,1.665-2.535
			s0.585-2.195,0.585-3.556v-11.1h-4.771V458.334z M653.825,459.443l-7.8-12.18h-5.16v18.75h4.47v-12.15l7.89,12.33h5.07v-18.93
			h-4.47V459.443z M675.155,459.443l-7.8-12.18h-5.16v18.75h4.47v-12.15l7.89,12.33h5.07v-18.93h-4.47V459.443z M683.525,466.014
			h13.71v-3.81h-9.03v-3.69h7.26v-3.81h-7.26v-3.631h9.03v-3.81h-13.71V466.014z M714.62,456.488
			c0.649-0.93,0.975-2.024,0.975-3.284c0-1.82-0.641-3.266-1.92-4.335c-1.28-1.07-3.17-1.605-5.67-1.605h-7.53v18.75h4.771v-6.12
			l2.189-0.18l3.75,6.3h5.37l-4.8-7.41C713.015,458.124,713.97,457.419,714.62,456.488z M709.895,455.544
			c-0.54,0.439-1.32,0.7-2.34,0.779l-2.4,0.061v-5.311h2.011c2.359,0,3.54,0.82,3.54,2.461
			C710.705,454.434,710.435,455.104,709.895,455.544z M735.784,458.903c-0.221-0.54-0.55-1.005-0.99-1.395
			c-0.439-0.39-0.989-0.694-1.649-0.915c-0.66-0.22-1.44-0.31-2.34-0.271c1.5-0.399,2.64-0.984,3.42-1.755
			c0.779-0.77,1.17-1.704,1.17-2.805c0-0.78-0.15-1.465-0.45-2.055s-0.72-1.08-1.26-1.471c-0.54-0.39-1.19-0.68-1.95-0.869
			c-0.761-0.19-1.59-0.285-2.49-0.285c-1.22,0-2.345,0.175-3.375,0.524c-1.03,0.351-1.935,0.785-2.715,1.306l1.29,3.3
			c0.58-0.42,1.265-0.775,2.055-1.065c0.79-0.289,1.555-0.435,2.295-0.435c0.84,0,1.455,0.17,1.845,0.51
			c0.391,0.341,0.586,0.771,0.586,1.29c0,0.4-0.136,0.75-0.405,1.05c-0.271,0.3-0.66,0.565-1.17,0.795
			c-0.511,0.23-1.13,0.436-1.86,0.615s-1.555,0.36-2.475,0.54v3.12c0.399-0.061,0.854-0.12,1.365-0.18
			c0.51-0.061,1.024-0.091,1.545-0.091c1.3-0.039,2.26,0.171,2.88,0.631c0.619,0.46,0.93,1.01,0.93,1.649
			c0,0.78-0.345,1.36-1.035,1.74c-0.689,0.38-1.515,0.57-2.475,0.57c-0.761,0-1.57-0.12-2.431-0.36c-0.859-0.24-1.64-0.5-2.34-0.78
			l-0.63,3.42c0.76,0.341,1.605,0.63,2.535,0.87s1.935,0.36,3.015,0.36c1.04,0,2.015-0.135,2.926-0.405
			c0.909-0.27,1.699-0.655,2.369-1.155c0.67-0.499,1.195-1.114,1.575-1.845c0.38-0.729,0.57-1.545,0.57-2.445
			C736.114,460.014,736.004,459.443,735.784,458.903z"/>
	</g>
</g>
<g>
	<g>
		<path fill="#F2644A" d="M87.615,72.837l-7.308-23.52h-2.226l-7.183,23.52l-6.594-23.52H62.5l7.476,26.25h1.638l7.561-24.359
			l7.602,24.359h1.639l7.266-26.25h-1.848L87.615,72.837z M101.266,75.567h14.994v-1.555h-13.272V63.22h11.088v-1.555h-11.088
			V50.871h13.272v-1.554h-14.994V75.567z M132.545,62.278c1.009-0.168,1.871-0.477,2.587-0.926c0.716-0.448,1.29-0.961,1.726-1.535
			c0.434-0.574,0.758-1.192,0.968-1.852s0.315-1.298,0.315-1.915c0-0.981-0.16-1.886-0.481-2.714s-0.824-1.536-1.508-2.125
			c-0.685-0.59-1.579-1.053-2.682-1.389c-1.103-0.337-2.437-0.506-4.001-0.506h-7.624v26.25h8.024c1.616,0,2.996-0.182,4.139-0.545
			c1.141-0.363,2.082-0.866,2.82-1.51c0.738-0.642,1.275-1.396,1.609-2.263s0.502-1.816,0.502-2.851
			c0-1.593-0.537-2.941-1.609-4.045C136.257,63.25,134.662,62.559,132.545,62.278z M123.566,50.871h5.815
			c2.501,0,4.298,0.479,5.394,1.439s1.644,2.243,1.644,3.853c0,0.931-0.183,1.734-0.548,2.412s-0.877,1.249-1.537,1.715
			s-1.434,0.811-2.318,1.037c-0.885,0.226-1.848,0.338-2.887,0.338h-5.562V50.871z M136.839,70.619
			c-0.252,0.689-0.672,1.286-1.26,1.792c-0.589,0.506-1.345,0.9-2.269,1.181c-0.924,0.281-2.058,0.421-3.401,0.421h-6.343V63.22
			h5.545c2.855,0,4.92,0.471,6.195,1.412c1.273,0.942,1.91,2.186,1.91,3.731C137.217,69.179,137.091,69.931,136.839,70.619z
			 M156.543,63.85c-0.697-0.56-1.493-1.036-2.387-1.429c-0.894-0.391-1.801-0.741-2.722-1.05c-0.978-0.336-1.885-0.679-2.722-1.028
			c-0.838-0.35-1.557-0.742-2.156-1.176c-0.602-0.435-1.076-0.945-1.425-1.533s-0.522-1.273-0.522-2.059
			c0-0.672,0.132-1.315,0.398-1.932c0.266-0.615,0.664-1.162,1.197-1.639c0.531-0.475,1.189-0.854,1.974-1.134
			c0.784-0.279,1.694-0.42,2.729-0.42c1.204,0,2.401,0.196,3.592,0.589c1.189,0.392,2.274,0.924,3.255,1.596l0.672-1.555
			c-0.98-0.644-2.101-1.168-3.36-1.574s-2.646-0.609-4.158-0.609c-1.148,0-2.205,0.176-3.17,0.525
			c-0.967,0.35-1.809,0.826-2.526,1.428c-0.718,0.603-1.285,1.316-1.701,2.142c-0.416,0.827-0.624,1.729-0.624,2.709
			c0,1.064,0.217,1.974,0.651,2.729c0.434,0.757,0.993,1.401,1.68,1.933c0.686,0.532,1.47,0.987,2.353,1.365
			c0.881,0.378,1.77,0.722,2.666,1.028c0.98,0.336,1.896,0.68,2.752,1.029c0.854,0.351,1.596,0.764,2.226,1.239
			c0.63,0.477,1.126,1.028,1.491,1.659c0.363,0.63,0.546,1.393,0.546,2.289c0,0.729-0.161,1.422-0.483,2.078
			c-0.322,0.659-0.777,1.24-1.365,1.744s-1.302,0.902-2.142,1.196s-1.764,0.441-2.772,0.441c-1.455,0-2.813-0.217-4.073-0.651
			c-1.261-0.434-2.38-0.986-3.36-1.658l-0.672,1.512c1.092,0.729,2.303,1.302,3.633,1.722s2.793,0.63,4.389,0.63
			c1.261,0,2.408-0.182,3.444-0.546c1.036-0.363,1.925-0.868,2.667-1.513c0.742-0.643,1.323-1.406,1.743-2.288
			s0.63-1.827,0.63-2.835c0-1.148-0.217-2.121-0.648-2.92C157.807,65.089,157.242,64.409,156.543,63.85z M164.097,75.567h1.722
			v-26.25h-1.722V75.567z M170.522,50.956h9.282v24.611h1.722V50.956h9.282v-1.639h-20.286V50.956z M210.464,50.871v-1.554H195.47
			v26.25h14.994v-1.555h-13.272V63.22h11.088v-1.555h-11.088V50.871H210.464z"/>
	</g>
</g>
<g>
	<path fill="#FFFFFF" d="M96.316,162.615c0.352-0.605,0.76-1.06,1.226-1.362s0.991-0.454,1.577-0.454
		c1.295,0,2.293,0.495,2.993,1.484s1.05,2.409,1.05,4.258c0,1.823-0.345,3.236-1.035,4.238s-1.66,1.504-2.91,1.504
		c-0.658,0-1.23-0.16-1.719-0.479s-0.882-0.794-1.182-1.426V172h-2.852v-15.195h2.852V162.615z M100.301,166.561
		c0-1.055-0.176-1.881-0.527-2.48s-0.836-0.898-1.455-0.898s-1.107,0.299-1.465,0.898s-0.537,1.426-0.537,2.48
		s0.179,1.881,0.537,2.48s0.846,0.898,1.465,0.898s1.104-0.299,1.455-0.898S100.301,167.615,100.301,166.561z"/>
	<path fill="#FFFFFF" d="M104.998,166.541c0-1.764,0.458-3.163,1.372-4.194s2.144-1.548,3.687-1.548
		c1.549,0,2.782,0.516,3.696,1.548s1.372,2.43,1.372,4.194s-0.458,3.163-1.372,4.194s-2.147,1.548-3.696,1.548
		c-1.543,0-2.772-0.516-3.687-1.548S104.998,168.305,104.998,166.541z M110.057,163.123c-0.684,0-1.221,0.301-1.611,0.903
		s-0.586,1.44-0.586,2.515s0.195,1.913,0.586,2.515s0.928,0.903,1.611,0.903c0.69,0,1.23-0.301,1.621-0.903s0.586-1.44,0.586-2.515
		s-0.195-1.913-0.586-2.515S110.747,163.123,110.057,163.123z"/>
	<path fill="#FFFFFF" d="M126.541,164.9v7.1h-2.842v-6.66c0-0.794-0.112-1.362-0.337-1.704s-0.591-0.513-1.099-0.513
		c-0.514,0-0.919,0.231-1.216,0.693s-0.444,1.104-0.444,1.924V172h-2.842v-10.938h2.842v1.641c0.202-0.605,0.547-1.074,1.035-1.406
		s1.078-0.498,1.768-0.498c1.035,0,1.816,0.343,2.344,1.03S126.541,163.54,126.541,164.9z"/>
	<path fill="#FFFFFF" d="M137.801,161.404v2.5c-0.527-0.338-1.076-0.594-1.646-0.767s-1.141-0.259-1.714-0.259
		c-0.638,0-1.12,0.093-1.445,0.278s-0.488,0.46-0.488,0.825c0,0.521,0.697,0.944,2.09,1.27l0.107,0.029l0.82,0.195
		c1.042,0.248,1.805,0.646,2.29,1.196s0.728,1.294,0.728,2.231c0,1.126-0.37,1.971-1.108,2.534s-1.851,0.845-3.335,0.845
		c-0.658,0-1.332-0.057-2.021-0.171s-1.39-0.285-2.1-0.513v-2.5c0.631,0.358,1.274,0.631,1.929,0.82s1.288,0.283,1.899,0.283
		c0.67,0,1.178-0.098,1.523-0.293s0.518-0.479,0.518-0.85c0-0.365-0.122-0.645-0.366-0.84s-0.825-0.404-1.743-0.625l-0.791-0.176
		c-1.094-0.248-1.891-0.635-2.393-1.162s-0.752-1.234-0.752-2.119c0-1.055,0.381-1.875,1.143-2.461s1.833-0.879,3.213-0.879
		c0.619,0,1.235,0.05,1.851,0.151S137.221,161.203,137.801,161.404z"/>
	<path fill="#FFFFFF" d="M150.984,165.76V172h-2.842v-1.221c-0.345,0.482-0.788,0.853-1.328,1.113s-1.136,0.391-1.787,0.391
		c-1.244,0-2.212-0.329-2.905-0.986s-1.04-1.576-1.04-2.754c0-1.276,0.414-2.218,1.24-2.827s2.106-0.913,3.838-0.913h1.982v-0.479
		c0-0.462-0.167-0.812-0.503-1.05s-0.829-0.356-1.479-0.356c-0.684,0-1.346,0.086-1.987,0.259s-1.31,0.448-2.007,0.825v-2.441
		c0.631-0.26,1.273-0.453,1.924-0.576s1.341-0.186,2.07-0.186c1.777,0,3.026,0.361,3.745,1.084S150.984,163.898,150.984,165.76z
		 M147,166.863c-1.068,0-1.813,0.137-2.236,0.41s-0.635,0.742-0.635,1.406c0,0.495,0.146,0.889,0.439,1.182s0.69,0.439,1.191,0.439
		c0.755,0,1.341-0.285,1.758-0.854s0.625-1.366,0.625-2.388v-0.195H147z"/>
	<path fill="#FFFFFF" d="M154.363,161.062h5.664v8.74h3.555V172h-9.98v-2.197h3.564v-6.543h-2.803V161.062z M157.166,155.74h2.861
		v3.34h-2.861V155.74z"/>
	<path fill="#FFFFFF" d="M168.631,168.416h3.262V172h-3.262V168.416z"/>
	<path fill="#FEE153" d="M187.527,164.08c-0.312-0.287-0.679-0.501-1.099-0.645s-0.88-0.215-1.382-0.215
		c-0.605,0-1.134,0.106-1.587,0.317s-0.802,0.519-1.05,0.923c-0.156,0.248-0.265,0.547-0.327,0.898s-0.093,0.885-0.093,1.602V172
		h-2.861v-10.938h2.861v1.699c0.28-0.625,0.709-1.108,1.289-1.45s1.256-0.513,2.031-0.513c0.391,0,0.773,0.047,1.147,0.142
		s0.731,0.233,1.069,0.415V164.08z"/>
	<path fill="#FEE153" d="M189.891,168.182v-7.119h2.861v6.68c0,0.788,0.111,1.351,0.332,1.689s0.589,0.508,1.104,0.508
		s0.917-0.228,1.206-0.684s0.435-1.094,0.435-1.914v-6.279h2.861V172h-2.861v-1.621c-0.202,0.605-0.545,1.074-1.03,1.406
		s-1.069,0.498-1.753,0.498c-1.042,0-1.828-0.345-2.358-1.035S189.891,169.536,189.891,168.182z"/>
	<path fill="#FEE153" d="M210.828,164.9v7.1h-2.842v-6.66c0-0.794-0.112-1.362-0.337-1.704s-0.591-0.513-1.099-0.513
		c-0.514,0-0.919,0.231-1.216,0.693s-0.444,1.104-0.444,1.924V172h-2.842v-10.938h2.842v1.641c0.202-0.605,0.547-1.074,1.035-1.406
		s1.078-0.498,1.768-0.498c1.035,0,1.816,0.343,2.344,1.03S210.828,163.54,210.828,164.9z"/>
	<path fill="#ECF4F7" d="M220.76,155.848c-0.866,1.484-1.512,2.964-1.938,4.438s-0.64,2.96-0.64,4.458
		c0,1.491,0.213,2.975,0.64,4.453s1.073,2.965,1.938,4.463h-1.562c-0.983-1.549-1.715-3.058-2.197-4.526s-0.723-2.931-0.723-4.39
		c0-1.452,0.241-2.914,0.723-4.385s1.214-2.975,2.197-4.512H220.76z"/>
	<path fill="#ECF4F7" d="M134.982,188.557h-2.461v-2.021l1.914-3.73h1.504l-0.957,3.73V188.557z"/>
	<path fill="#23C3F0" d="M147.766,188.615v-5.811h2.852V198h-2.852v-1.621c-0.306,0.631-0.702,1.107-1.187,1.426
		s-1.056,0.479-1.714,0.479c-1.25,0-2.22-0.501-2.91-1.504s-1.035-2.416-1.035-4.238c0-1.849,0.35-3.268,1.05-4.258
		s1.698-1.484,2.993-1.484c0.586,0,1.112,0.151,1.577,0.454S147.414,188.01,147.766,188.615z M143.781,192.561
		c0,1.055,0.176,1.881,0.527,2.48s0.836,0.898,1.455,0.898s1.107-0.299,1.465-0.898s0.537-1.426,0.537-2.48s-0.179-1.881-0.537-2.48
		s-0.846-0.898-1.465-0.898s-1.104,0.299-1.455,0.898S143.781,191.506,143.781,192.561z"/>
	<path fill="#23C3F0" d="M154.24,187.062h5.664v8.74h3.555V198h-9.98v-2.197h3.564v-6.543h-2.803V187.062z M157.043,181.74h2.861
		v3.34h-2.861V181.74z"/>
	<path fill="#23C3F0" d="M175.383,187.062L171.906,198h-3.525l-3.477-10.938h2.9l2.334,8.535l2.344-8.535H175.383z"/>
	<path fill="#23C3F0" d="M178,195.461h3.223v-9.463l-2.998,0.742v-2.598l3.018-0.723h2.783v12.041h3.223V198H178V195.461z"/>
	<path fill="#ECF4F7" d="M193.684,182.805h2.461v2.012l-1.924,3.74h-1.494l0.957-3.74V182.805z"/>
	<path fill="#ECF4F7" d="M204.562,194.475h3.047v2.588l-2.168,4.209l-1.953,0.01l1.074-4.219V194.475z"/>
	<path fill="#ECF4F7" d="M134.982,214.557h-2.461v-2.021l1.914-3.73h1.504l-0.957,3.73V214.557z"/>
	<path fill="#23C3F0" d="M146.779,214.156c0.215-0.462,0.488-0.804,0.82-1.025s0.739-0.332,1.221-0.332
		c0.944,0,1.597,0.326,1.958,0.977s0.542,2.005,0.542,4.062V224h-2.344v-7.021c0-0.814-0.062-1.357-0.186-1.631
		s-0.348-0.41-0.674-0.41s-0.553,0.14-0.684,0.42s-0.195,0.82-0.195,1.621V224h-2.314v-7.021c0-0.801-0.065-1.341-0.195-1.621
		s-0.358-0.42-0.684-0.42s-0.55,0.137-0.674,0.41s-0.186,0.817-0.186,1.631V224h-2.344v-10.938h2.08v1.133
		c0.163-0.43,0.423-0.77,0.781-1.021s0.758-0.376,1.201-0.376s0.846,0.132,1.211,0.396S146.701,213.779,146.779,214.156z"/>
	<path fill="#23C3F0" d="M153.039,218.541c0-1.764,0.458-3.163,1.372-4.194s2.144-1.548,3.687-1.548
		c1.549,0,2.782,0.516,3.696,1.548s1.372,2.43,1.372,4.194s-0.458,3.163-1.372,4.194s-2.147,1.548-3.696,1.548
		c-1.543,0-2.772-0.516-3.687-1.548S153.039,220.305,153.039,218.541z M158.098,215.123c-0.684,0-1.221,0.301-1.611,0.903
		s-0.586,1.44-0.586,2.515s0.195,1.913,0.586,2.515s0.928,0.903,1.611,0.903c0.69,0,1.23-0.301,1.621-0.903s0.586-1.44,0.586-2.515
		s-0.195-1.913-0.586-2.515S158.788,215.123,158.098,215.123z"/>
	<path fill="#23C3F0" d="M175.383,213.062L171.906,224h-3.525l-3.477-10.938h2.9l2.334,8.535l2.344-8.535H175.383z"/>
	<path fill="#23C3F0" d="M178.322,213.062h5.664v8.74h3.555V224h-9.98v-2.197h3.564v-6.543h-2.803V213.062z M181.125,207.74h2.861
		v3.34h-2.861V207.74z"/>
	<path fill="#23C3F0" d="M198.967,223.463c-0.664,0.273-1.341,0.479-2.031,0.615s-1.419,0.205-2.188,0.205
		c-1.83,0-3.228-0.49-4.194-1.47s-1.45-2.391-1.45-4.233c0-1.784,0.465-3.193,1.396-4.229s2.201-1.553,3.809-1.553
		c1.621,0,2.879,0.48,3.774,1.44s1.343,2.313,1.343,4.058v1.162h-7.412c0.006,0.859,0.26,1.5,0.762,1.924s1.25,0.635,2.246,0.635
		c0.658,0,1.305-0.094,1.943-0.283s1.305-0.488,2.002-0.898V223.463z M196.545,217.311c-0.013-0.755-0.207-1.327-0.581-1.714
		s-0.926-0.581-1.655-0.581c-0.658,0-1.182,0.2-1.572,0.601s-0.622,0.968-0.693,1.704L196.545,217.311z"/>
	<path fill="#23C3F0" d="M202.082,221.461h3.223v-9.463l-2.998,0.742v-2.598l3.018-0.723h2.783v12.041h3.223V224h-9.248V221.461z"/>
	<path fill="#23C3F0" d="M216.672,220.416h3.262V224h-3.262V220.416z"/>
	<path fill="#23C3F0" d="M232.629,223.58c0,1.641-0.294,2.811-0.884,3.511s-1.567,1.05-2.935,1.05h-3.086v-2.197h2.285
		c0.638,0,1.09-0.179,1.357-0.537s0.4-0.967,0.4-1.826v-8.32h-2.9v-2.197h5.762V223.58z M232.629,211.08h-2.861v-3.34h2.861V211.08z
		"/>
	<path fill="#23C3F0" d="M246.047,213.404v2.5c-0.527-0.338-1.076-0.594-1.646-0.767s-1.141-0.259-1.714-0.259
		c-0.638,0-1.12,0.093-1.445,0.278s-0.488,0.46-0.488,0.825c0,0.521,0.697,0.944,2.09,1.27l0.107,0.029l0.82,0.195
		c1.042,0.248,1.805,0.646,2.29,1.196s0.728,1.294,0.728,2.231c0,1.126-0.37,1.971-1.108,2.534s-1.851,0.845-3.335,0.845
		c-0.658,0-1.332-0.057-2.021-0.171s-1.39-0.285-2.1-0.513v-2.5c0.631,0.358,1.274,0.631,1.929,0.82s1.288,0.283,1.899,0.283
		c0.67,0,1.178-0.098,1.523-0.293s0.518-0.479,0.518-0.85c0-0.365-0.122-0.645-0.366-0.84s-0.825-0.404-1.743-0.625l-0.791-0.176
		c-1.094-0.248-1.891-0.635-2.393-1.162s-0.752-1.234-0.752-2.119c0-1.055,0.381-1.875,1.143-2.461s1.833-0.879,3.213-0.879
		c0.619,0,1.235,0.05,1.851,0.151S245.467,213.203,246.047,213.404z"/>
	<path fill="#ECF4F7" d="M253.889,208.805h2.461v2.012l-1.924,3.74h-1.494l0.957-3.74V208.805z"/>
	<path fill="#ECF4F7" d="M263.85,207.848h1.562c0.983,1.537,1.715,3.041,2.197,4.512s0.723,2.933,0.723,4.385
		c0,1.465-0.241,2.933-0.723,4.404s-1.214,2.975-2.197,4.512h-1.562c0.866-1.51,1.512-3.004,1.938-4.482s0.64-2.956,0.64-4.434
		c0-1.484-0.213-2.965-0.64-4.443S264.715,209.338,263.85,207.848z"/>
	<path fill="#ECF4F7" d="M276.809,220.475h3.047v2.588l-1.924,3.73h-2.09l0.967-3.73V220.475z M276.682,213.072h3.047v3.525h-3.047
		V213.072z"/>
</g>
<g>
	<path fill="#FFFFFF" d="M96.316,295.615c0.352-0.605,0.76-1.06,1.226-1.362s0.991-0.454,1.577-0.454
		c1.295,0,2.293,0.495,2.993,1.484s1.05,2.409,1.05,4.258c0,1.822-0.345,3.236-1.035,4.238s-1.66,1.504-2.91,1.504
		c-0.658,0-1.23-0.16-1.719-0.479s-0.882-0.795-1.182-1.426V305h-2.852v-15.195h2.852V295.615z M100.301,299.561
		c0-1.055-0.176-1.881-0.527-2.48s-0.836-0.898-1.455-0.898s-1.107,0.299-1.465,0.898s-0.537,1.426-0.537,2.48
		s0.179,1.881,0.537,2.48s0.846,0.898,1.465,0.898s1.104-0.299,1.455-0.898S100.301,300.615,100.301,299.561z"/>
	<path fill="#FFFFFF" d="M104.998,299.541c0-1.764,0.458-3.163,1.372-4.194s2.144-1.548,3.687-1.548
		c1.549,0,2.782,0.516,3.696,1.548s1.372,2.43,1.372,4.194c0,1.764-0.458,3.162-1.372,4.194s-2.147,1.548-3.696,1.548
		c-1.543,0-2.772-0.516-3.687-1.548S104.998,301.305,104.998,299.541z M110.057,296.123c-0.684,0-1.221,0.301-1.611,0.903
		s-0.586,1.44-0.586,2.515s0.195,1.912,0.586,2.515s0.928,0.903,1.611,0.903c0.69,0,1.23-0.301,1.621-0.903s0.586-1.44,0.586-2.515
		s-0.195-1.913-0.586-2.515S110.747,296.123,110.057,296.123z"/>
	<path fill="#FFFFFF" d="M126.541,297.9v7.1h-2.842v-6.66c0-0.794-0.112-1.362-0.337-1.704s-0.591-0.513-1.099-0.513
		c-0.514,0-0.919,0.231-1.216,0.693s-0.444,1.104-0.444,1.924V305h-2.842v-10.938h2.842v1.641c0.202-0.605,0.547-1.074,1.035-1.406
		s1.078-0.498,1.768-0.498c1.035,0,1.816,0.343,2.344,1.03S126.541,296.54,126.541,297.9z"/>
	<path fill="#FFFFFF" d="M137.801,294.404v2.5c-0.527-0.338-1.076-0.594-1.646-0.767s-1.141-0.259-1.714-0.259
		c-0.638,0-1.12,0.093-1.445,0.278s-0.488,0.46-0.488,0.825c0,0.521,0.697,0.944,2.09,1.27l0.107,0.029l0.82,0.195
		c1.042,0.248,1.805,0.646,2.29,1.196s0.728,1.294,0.728,2.231c0,1.127-0.37,1.971-1.108,2.534s-1.851,0.845-3.335,0.845
		c-0.658,0-1.332-0.057-2.021-0.171s-1.39-0.284-2.1-0.513v-2.5c0.631,0.357,1.274,0.631,1.929,0.82s1.288,0.283,1.899,0.283
		c0.67,0,1.178-0.098,1.523-0.293s0.518-0.479,0.518-0.85c0-0.365-0.122-0.645-0.366-0.84s-0.825-0.404-1.743-0.625l-0.791-0.176
		c-1.094-0.248-1.891-0.635-2.393-1.162s-0.752-1.234-0.752-2.119c0-1.055,0.381-1.875,1.143-2.461s1.833-0.879,3.213-0.879
		c0.619,0,1.235,0.05,1.851,0.151S137.221,294.203,137.801,294.404z"/>
	<path fill="#FFFFFF" d="M150.984,298.76V305h-2.842v-1.221c-0.345,0.482-0.788,0.854-1.328,1.113s-1.136,0.391-1.787,0.391
		c-1.244,0-2.212-0.328-2.905-0.986s-1.04-1.576-1.04-2.754c0-1.276,0.414-2.218,1.24-2.827s2.106-0.913,3.838-0.913h1.982v-0.479
		c0-0.462-0.167-0.812-0.503-1.05s-0.829-0.356-1.479-0.356c-0.684,0-1.346,0.086-1.987,0.259s-1.31,0.448-2.007,0.825v-2.441
		c0.631-0.26,1.273-0.453,1.924-0.576s1.341-0.186,2.07-0.186c1.777,0,3.026,0.361,3.745,1.084S150.984,296.898,150.984,298.76z
		 M147,299.863c-1.068,0-1.813,0.137-2.236,0.41s-0.635,0.742-0.635,1.406c0,0.494,0.146,0.889,0.439,1.182s0.69,0.439,1.191,0.439
		c0.755,0,1.341-0.285,1.758-0.854s0.625-1.366,0.625-2.388v-0.195H147z"/>
	<path fill="#FFFFFF" d="M154.363,294.062h5.664v8.74h3.555V305h-9.98v-2.197h3.564v-6.543h-2.803V294.062z M157.166,288.74h2.861
		v3.34h-2.861V288.74z"/>
	<path fill="#FFFFFF" d="M168.631,301.416h3.262V305h-3.262V301.416z"/>
	<path fill="#FDE053" d="M187.527,297.08c-0.312-0.287-0.679-0.501-1.099-0.645s-0.88-0.215-1.382-0.215
		c-0.605,0-1.134,0.106-1.587,0.317s-0.802,0.519-1.05,0.923c-0.156,0.248-0.265,0.547-0.327,0.898s-0.093,0.885-0.093,1.602V305
		h-2.861v-10.938h2.861v1.699c0.28-0.625,0.709-1.108,1.289-1.45s1.256-0.513,2.031-0.513c0.391,0,0.773,0.047,1.147,0.142
		s0.731,0.233,1.069,0.415V297.08z"/>
	<path fill="#FDE053" d="M189.891,301.182v-7.119h2.861v6.68c0,0.787,0.111,1.352,0.332,1.689s0.589,0.508,1.104,0.508
		s0.917-0.229,1.206-0.684s0.435-1.094,0.435-1.914v-6.279h2.861V305h-2.861v-1.621c-0.202,0.605-0.545,1.074-1.03,1.406
		s-1.069,0.498-1.753,0.498c-1.042,0-1.828-0.346-2.358-1.035S189.891,302.535,189.891,301.182z"/>
	<path fill="#FDE053" d="M210.828,297.9v7.1h-2.842v-6.66c0-0.794-0.112-1.362-0.337-1.704s-0.591-0.513-1.099-0.513
		c-0.514,0-0.919,0.231-1.216,0.693s-0.444,1.104-0.444,1.924V305h-2.842v-10.938h2.842v1.641c0.202-0.605,0.547-1.074,1.035-1.406
		s1.078-0.498,1.768-0.498c1.035,0,1.816,0.343,2.344,1.03S210.828,296.54,210.828,297.9z"/>
	<path fill="#ECF3F6" d="M220.76,288.848c-0.866,1.484-1.512,2.964-1.938,4.438s-0.64,2.96-0.64,4.458
		c0,1.491,0.213,2.975,0.64,4.453c0.426,1.479,1.073,2.965,1.938,4.463h-1.562c-0.983-1.549-1.715-3.059-2.197-4.526
		c-0.482-1.468-0.723-2.931-0.723-4.39c0-1.452,0.241-2.914,0.723-4.385s1.214-2.975,2.197-4.512H220.76z"/>
	<path fill="#ECF3F6" d="M134.982,321.557h-2.461v-2.021l1.914-3.73h1.504l-0.957,3.73V321.557z"/>
	<path fill="#24C3EF" d="M147.766,321.615v-5.811h2.852V331h-2.852v-1.621c-0.306,0.631-0.702,1.107-1.187,1.426
		s-1.056,0.479-1.714,0.479c-1.25,0-2.22-0.502-2.91-1.504s-1.035-2.416-1.035-4.238c0-1.85,0.35-3.268,1.05-4.258
		s1.698-1.484,2.993-1.484c0.586,0,1.112,0.151,1.577,0.454S147.414,321.01,147.766,321.615z M143.781,325.561
		c0,1.055,0.176,1.881,0.527,2.48s0.836,0.898,1.455,0.898s1.107-0.299,1.465-0.898s0.537-1.426,0.537-2.48s-0.179-1.881-0.537-2.48
		s-0.846-0.898-1.465-0.898s-1.104,0.299-1.455,0.898S143.781,324.506,143.781,325.561z"/>
	<path fill="#24C3EF" d="M154.24,320.062h5.664v8.74h3.555V331h-9.98v-2.197h3.564v-6.543h-2.803V320.062z M157.043,314.74h2.861
		v3.34h-2.861V314.74z"/>
	<path fill="#24C3EF" d="M175.383,320.062L171.906,331h-3.525l-3.477-10.938h2.9l2.334,8.535l2.344-8.535H175.383z"/>
	<path fill="#24C3EF" d="M180.402,328.461h6.143V331h-9.258v-2.461l1.562-1.66c1.855-1.973,2.982-3.188,3.379-3.643
		c0.488-0.561,0.84-1.057,1.055-1.489s0.322-0.86,0.322-1.284c0-0.65-0.197-1.154-0.591-1.509s-0.952-0.532-1.675-0.532
		c-0.514,0-1.092,0.103-1.733,0.308s-1.31,0.503-2.007,0.894v-2.686c0.697-0.254,1.378-0.447,2.046-0.581s1.307-0.2,1.919-0.2
		c1.543,0,2.755,0.359,3.638,1.079s1.323,1.7,1.323,2.944c0,0.572-0.096,1.109-0.288,1.611s-0.522,1.059-0.991,1.67
		c-0.345,0.443-1.292,1.439-2.842,2.988C181.564,327.289,180.897,327.959,180.402,328.461z"/>
	<path fill="#ECF3F6" d="M193.684,315.805h2.461v2.012l-1.924,3.74h-1.494l0.957-3.74V315.805z"/>
	<path fill="#ECF3F6" d="M204.562,327.475h3.047v2.588l-2.168,4.209l-1.953,0.01l1.074-4.219V327.475z"/>
	<path fill="#ECF3F6" d="M134.982,347.557h-2.461v-2.021l1.914-3.73h1.504l-0.957,3.73V347.557z"/>
	<path fill="#24C3EF" d="M146.779,347.156c0.215-0.463,0.488-0.805,0.82-1.025s0.739-0.332,1.221-0.332
		c0.944,0,1.597,0.326,1.958,0.977s0.542,2.006,0.542,4.062V357h-2.344v-7.021c0-0.814-0.062-1.357-0.186-1.631
		s-0.348-0.41-0.674-0.41s-0.553,0.141-0.684,0.42s-0.195,0.82-0.195,1.621V357h-2.314v-7.021c0-0.801-0.065-1.342-0.195-1.621
		s-0.358-0.42-0.684-0.42s-0.55,0.137-0.674,0.41s-0.186,0.816-0.186,1.631V357h-2.344v-10.938h2.08v1.133
		c0.163-0.43,0.423-0.77,0.781-1.021s0.758-0.376,1.201-0.376s0.846,0.132,1.211,0.396S146.701,346.779,146.779,347.156z"/>
	<path fill="#24C3EF" d="M153.039,351.541c0-1.764,0.458-3.162,1.372-4.194s2.144-1.548,3.687-1.548
		c1.549,0,2.782,0.516,3.696,1.548s1.372,2.431,1.372,4.194s-0.458,3.162-1.372,4.194s-2.147,1.548-3.696,1.548
		c-1.543,0-2.772-0.516-3.687-1.548S153.039,353.305,153.039,351.541z M158.098,348.123c-0.684,0-1.221,0.301-1.611,0.903
		s-0.586,1.44-0.586,2.515s0.195,1.912,0.586,2.515s0.928,0.903,1.611,0.903c0.69,0,1.23-0.301,1.621-0.903s0.586-1.44,0.586-2.515
		s-0.195-1.912-0.586-2.515S158.788,348.123,158.098,348.123z"/>
	<path fill="#24C3EF" d="M175.383,346.062L171.906,357h-3.525l-3.477-10.938h2.9l2.334,8.535l2.344-8.535H175.383z"/>
	<path fill="#24C3EF" d="M178.322,346.062h5.664v8.74h3.555V357h-9.98v-2.197h3.564v-6.543h-2.803V346.062z M181.125,340.74h2.861
		v3.34h-2.861V340.74z"/>
	<path fill="#24C3EF" d="M198.967,356.463c-0.664,0.273-1.341,0.479-2.031,0.615s-1.419,0.205-2.188,0.205
		c-1.83,0-3.228-0.49-4.194-1.47s-1.45-2.392-1.45-4.233c0-1.783,0.465-3.193,1.396-4.229s2.201-1.553,3.809-1.553
		c1.621,0,2.879,0.48,3.774,1.44s1.343,2.313,1.343,4.058v1.162h-7.412c0.006,0.859,0.26,1.5,0.762,1.924s1.25,0.635,2.246,0.635
		c0.658,0,1.305-0.094,1.943-0.283s1.305-0.488,2.002-0.898V356.463z M196.545,350.311c-0.013-0.756-0.207-1.326-0.581-1.714
		s-0.926-0.581-1.655-0.581c-0.658,0-1.182,0.2-1.572,0.601s-0.622,0.968-0.693,1.704L196.545,350.311z"/>
	<path fill="#24C3EF" d="M204.484,354.461h6.143V357h-9.258v-2.461l1.562-1.66c1.855-1.973,2.982-3.188,3.379-3.643
		c0.488-0.561,0.84-1.057,1.055-1.489s0.322-0.86,0.322-1.284c0-0.65-0.197-1.154-0.591-1.509s-0.952-0.532-1.675-0.532
		c-0.514,0-1.092,0.103-1.733,0.308s-1.31,0.503-2.007,0.894v-2.686c0.697-0.254,1.378-0.447,2.046-0.581s1.307-0.2,1.919-0.2
		c1.543,0,2.755,0.359,3.638,1.079s1.323,1.7,1.323,2.944c0,0.572-0.096,1.109-0.288,1.611s-0.522,1.059-0.991,1.67
		c-0.345,0.443-1.292,1.439-2.842,2.988C205.646,353.289,204.979,353.959,204.484,354.461z"/>
	<path fill="#24C3EF" d="M216.672,353.416h3.262V357h-3.262V353.416z"/>
	<path fill="#24C3EF" d="M232.629,356.58c0,1.641-0.294,2.811-0.884,3.511s-1.567,1.05-2.935,1.05h-3.086v-2.197h2.285
		c0.638,0,1.09-0.18,1.357-0.537s0.4-0.967,0.4-1.826v-8.32h-2.9v-2.197h5.762V356.58z M232.629,344.08h-2.861v-3.34h2.861V344.08z"
		/>
	<path fill="#24C3EF" d="M246.047,346.404v2.5c-0.527-0.338-1.076-0.594-1.646-0.767s-1.141-0.259-1.714-0.259
		c-0.638,0-1.12,0.093-1.445,0.278s-0.488,0.46-0.488,0.825c0,0.521,0.697,0.943,2.09,1.27l0.107,0.029l0.82,0.195
		c1.042,0.248,1.805,0.646,2.29,1.196s0.728,1.294,0.728,2.231c0,1.127-0.37,1.971-1.108,2.534s-1.851,0.845-3.335,0.845
		c-0.658,0-1.332-0.057-2.021-0.171s-1.39-0.284-2.1-0.513v-2.5c0.631,0.357,1.274,0.631,1.929,0.82s1.288,0.283,1.899,0.283
		c0.67,0,1.178-0.098,1.523-0.293s0.518-0.479,0.518-0.85c0-0.365-0.122-0.645-0.366-0.84s-0.825-0.404-1.743-0.625l-0.791-0.176
		c-1.094-0.248-1.891-0.635-2.393-1.162s-0.752-1.234-0.752-2.119c0-1.055,0.381-1.875,1.143-2.461s1.833-0.879,3.213-0.879
		c0.619,0,1.235,0.051,1.851,0.151S245.467,346.203,246.047,346.404z"/>
	<path fill="#ECF3F6" d="M253.889,341.805h2.461v2.012l-1.924,3.74h-1.494l0.957-3.74V341.805z"/>
	<path fill="#ECF3F6" d="M263.85,340.848h1.562c0.983,1.537,1.715,3.041,2.197,4.512s0.723,2.934,0.723,4.385
		c0,1.465-0.241,2.934-0.723,4.404s-1.214,2.975-2.197,4.512h-1.562c0.866-1.51,1.512-3.004,1.938-4.482s0.64-2.955,0.64-4.434
		c0-1.484-0.213-2.965-0.64-4.443S264.715,342.338,263.85,340.848z"/>
	<path fill="#ECF3F6" d="M276.809,353.475h3.047v2.588l-1.924,3.73h-2.09l0.967-3.73V353.475z M276.682,346.072h3.047v3.525h-3.047
		V346.072z"/>
</g>
<g>
	<path fill="#FFFFFF" d="M96.316,428.615c0.352-0.605,0.76-1.06,1.226-1.362s0.991-0.454,1.577-0.454
		c1.295,0,2.293,0.494,2.993,1.484s1.05,2.408,1.05,4.258c0,1.822-0.345,3.236-1.035,4.238s-1.66,1.504-2.91,1.504
		c-0.658,0-1.23-0.16-1.719-0.479s-0.882-0.795-1.182-1.426V438h-2.852v-15.195h2.852V428.615z M100.301,432.561
		c0-1.055-0.176-1.881-0.527-2.48s-0.836-0.898-1.455-0.898s-1.107,0.299-1.465,0.898s-0.537,1.426-0.537,2.48
		s0.179,1.881,0.537,2.48s0.846,0.898,1.465,0.898s1.104-0.299,1.455-0.898S100.301,433.615,100.301,432.561z"/>
	<path fill="#FFFFFF" d="M104.998,432.541c0-1.764,0.458-3.162,1.372-4.194s2.144-1.548,3.687-1.548
		c1.549,0,2.782,0.516,3.696,1.548s1.372,2.431,1.372,4.194s-0.458,3.162-1.372,4.194s-2.147,1.548-3.696,1.548
		c-1.543,0-2.772-0.516-3.687-1.548S104.998,434.305,104.998,432.541z M110.057,429.123c-0.684,0-1.221,0.301-1.611,0.903
		s-0.586,1.44-0.586,2.515s0.195,1.912,0.586,2.515s0.928,0.903,1.611,0.903c0.69,0,1.23-0.301,1.621-0.903s0.586-1.44,0.586-2.515
		s-0.195-1.912-0.586-2.515S110.747,429.123,110.057,429.123z"/>
	<path fill="#FFFFFF" d="M126.541,430.9v7.1h-2.842v-6.66c0-0.795-0.112-1.362-0.337-1.704s-0.591-0.513-1.099-0.513
		c-0.514,0-0.919,0.23-1.216,0.693s-0.444,1.104-0.444,1.924V438h-2.842v-10.938h2.842v1.641c0.202-0.605,0.547-1.074,1.035-1.406
		s1.078-0.498,1.768-0.498c1.035,0,1.816,0.344,2.344,1.03S126.541,429.539,126.541,430.9z"/>
	<path fill="#FFFFFF" d="M137.801,427.404v2.5c-0.527-0.338-1.076-0.594-1.646-0.767s-1.141-0.259-1.714-0.259
		c-0.638,0-1.12,0.093-1.445,0.278s-0.488,0.46-0.488,0.825c0,0.521,0.697,0.943,2.09,1.27l0.107,0.029l0.82,0.195
		c1.042,0.248,1.805,0.646,2.29,1.196s0.728,1.294,0.728,2.231c0,1.127-0.37,1.971-1.108,2.534s-1.851,0.845-3.335,0.845
		c-0.658,0-1.332-0.057-2.021-0.171s-1.39-0.284-2.1-0.513v-2.5c0.631,0.357,1.274,0.631,1.929,0.82s1.288,0.283,1.899,0.283
		c0.67,0,1.178-0.098,1.523-0.293s0.518-0.479,0.518-0.85c0-0.365-0.122-0.645-0.366-0.84s-0.825-0.404-1.743-0.625l-0.791-0.176
		c-1.094-0.248-1.891-0.635-2.393-1.162s-0.752-1.234-0.752-2.119c0-1.055,0.381-1.875,1.143-2.461s1.833-0.879,3.213-0.879
		c0.619,0,1.235,0.051,1.851,0.151S137.221,427.203,137.801,427.404z"/>
	<path fill="#FFFFFF" d="M150.984,431.76V438h-2.842v-1.221c-0.345,0.482-0.788,0.854-1.328,1.113s-1.136,0.391-1.787,0.391
		c-1.244,0-2.212-0.328-2.905-0.986s-1.04-1.576-1.04-2.754c0-1.275,0.414-2.219,1.24-2.827s2.106-0.913,3.838-0.913h1.982v-0.479
		c0-0.463-0.167-0.812-0.503-1.05s-0.829-0.356-1.479-0.356c-0.684,0-1.346,0.086-1.987,0.259s-1.31,0.448-2.007,0.825v-2.441
		c0.631-0.26,1.273-0.453,1.924-0.576s1.341-0.186,2.07-0.186c1.777,0,3.026,0.361,3.745,1.084S150.984,429.898,150.984,431.76z
		 M147,432.863c-1.068,0-1.813,0.137-2.236,0.41s-0.635,0.742-0.635,1.406c0,0.494,0.146,0.889,0.439,1.182s0.69,0.439,1.191,0.439
		c0.755,0,1.341-0.285,1.758-0.854s0.625-1.366,0.625-2.388v-0.195H147z"/>
	<path fill="#FFFFFF" d="M154.363,427.062h5.664v8.74h3.555V438h-9.98v-2.197h3.564v-6.543h-2.803V427.062z M157.166,421.74h2.861
		v3.34h-2.861V421.74z"/>
	<path fill="#FFFFFF" d="M168.631,434.416h3.262V438h-3.262V434.416z"/>
	<path fill="#FDE053" d="M187.527,430.08c-0.312-0.287-0.679-0.502-1.099-0.645s-0.88-0.215-1.382-0.215
		c-0.605,0-1.134,0.105-1.587,0.317s-0.802,0.519-1.05,0.923c-0.156,0.248-0.265,0.547-0.327,0.898s-0.093,0.885-0.093,1.602V438
		h-2.861v-10.938h2.861v1.699c0.28-0.625,0.709-1.108,1.289-1.45s1.256-0.513,2.031-0.513c0.391,0,0.773,0.047,1.147,0.142
		s0.731,0.233,1.069,0.415V430.08z"/>
	<path fill="#FDE053" d="M189.891,434.182v-7.119h2.861v6.68c0,0.787,0.111,1.352,0.332,1.689s0.589,0.508,1.104,0.508
		s0.917-0.229,1.206-0.684s0.435-1.094,0.435-1.914v-6.279h2.861V438h-2.861v-1.621c-0.202,0.605-0.545,1.074-1.03,1.406
		s-1.069,0.498-1.753,0.498c-1.042,0-1.828-0.346-2.358-1.035S189.891,435.535,189.891,434.182z"/>
	<path fill="#FDE053" d="M210.828,430.9v7.1h-2.842v-6.66c0-0.795-0.112-1.362-0.337-1.704s-0.591-0.513-1.099-0.513
		c-0.514,0-0.919,0.23-1.216,0.693s-0.444,1.104-0.444,1.924V438h-2.842v-10.938h2.842v1.641c0.202-0.605,0.547-1.074,1.035-1.406
		s1.078-0.498,1.768-0.498c1.035,0,1.816,0.344,2.344,1.03S210.828,429.539,210.828,430.9z"/>
	<path fill="#ECF3F6" d="M220.76,421.848c-0.866,1.484-1.512,2.964-1.938,4.438s-0.64,2.96-0.64,4.458
		c0,1.49,0.213,2.975,0.64,4.453s1.073,2.965,1.938,4.463h-1.562c-0.983-1.549-1.715-3.059-2.197-4.526s-0.723-2.931-0.723-4.39
		c0-1.451,0.241-2.914,0.723-4.385s1.214-2.975,2.197-4.512H220.76z"/>
	<path fill="#ECF3F6" d="M134.982,454.557h-2.461v-2.021l1.914-3.73h1.504l-0.957,3.73V454.557z"/>
	<path fill="#24C3EF" d="M147.766,454.615v-5.811h2.852V464h-2.852v-1.621c-0.306,0.631-0.702,1.107-1.187,1.426
		s-1.056,0.479-1.714,0.479c-1.25,0-2.22-0.502-2.91-1.504s-1.035-2.416-1.035-4.238c0-1.85,0.35-3.268,1.05-4.258
		s1.698-1.484,2.993-1.484c0.586,0,1.112,0.151,1.577,0.454S147.414,454.01,147.766,454.615z M143.781,458.561
		c0,1.055,0.176,1.881,0.527,2.48s0.836,0.898,1.455,0.898s1.107-0.299,1.465-0.898s0.537-1.426,0.537-2.48s-0.179-1.881-0.537-2.48
		s-0.846-0.898-1.465-0.898s-1.104,0.299-1.455,0.898S143.781,457.506,143.781,458.561z"/>
	<path fill="#24C3EF" d="M154.24,453.062h5.664v8.74h3.555V464h-9.98v-2.197h3.564v-6.543h-2.803V453.062z M157.043,447.74h2.861
		v3.34h-2.861V447.74z"/>
	<path fill="#24C3EF" d="M175.383,453.062L171.906,464h-3.525l-3.477-10.938h2.9l2.334,8.535l2.344-8.535H175.383z"/>
	<path fill="#24C3EF" d="M181.525,457.477h-1.543v-2.539h1.543c0.716,0,1.271-0.142,1.665-0.425s0.591-0.683,0.591-1.196
		c0-0.541-0.197-0.962-0.591-1.265s-0.949-0.454-1.665-0.454c-0.547,0-1.133,0.068-1.758,0.205s-1.273,0.336-1.943,0.596v-2.617
		c0.67-0.201,1.332-0.356,1.982-0.464s1.276-0.161,1.875-0.161c1.537,0,2.734,0.336,3.594,1.006s1.289,1.596,1.289,2.773
		c0,0.865-0.248,1.574-0.742,2.124s-1.201,0.909-2.119,1.079c1.042,0.182,1.836,0.598,2.383,1.245s0.82,1.499,0.82,2.554
		c0,1.412-0.453,2.49-1.357,3.232s-2.22,1.113-3.945,1.113c-0.736,0-1.46-0.062-2.173-0.186s-1.395-0.303-2.046-0.537v-2.676
		c0.612,0.307,1.273,0.539,1.982,0.698s1.455,0.239,2.236,0.239s1.4-0.181,1.855-0.542s0.684-0.849,0.684-1.46
		c0-0.748-0.228-1.326-0.684-1.733S182.359,457.477,181.525,457.477z"/>
	<path fill="#ECF3F6" d="M193.684,448.805h2.461v2.012l-1.924,3.74h-1.494l0.957-3.74V448.805z"/>
	<path fill="#ECF3F6" d="M204.562,460.475h3.047v2.588l-2.168,4.209l-1.953,0.01l1.074-4.219V460.475z"/>
	<path fill="#ECF3F6" d="M134.982,480.557h-2.461v-2.021l1.914-3.73h1.504l-0.957,3.73V480.557z"/>
	<path fill="#24C3EF" d="M146.779,480.156c0.215-0.463,0.488-0.805,0.82-1.025s0.739-0.332,1.221-0.332
		c0.944,0,1.597,0.326,1.958,0.977s0.542,2.006,0.542,4.062V490h-2.344v-7.021c0-0.814-0.062-1.357-0.186-1.631
		s-0.348-0.41-0.674-0.41s-0.553,0.141-0.684,0.42s-0.195,0.82-0.195,1.621V490h-2.314v-7.021c0-0.801-0.065-1.342-0.195-1.621
		s-0.358-0.42-0.684-0.42s-0.55,0.137-0.674,0.41s-0.186,0.816-0.186,1.631V490h-2.344v-10.938h2.08v1.133
		c0.163-0.43,0.423-0.77,0.781-1.021s0.758-0.376,1.201-0.376s0.846,0.132,1.211,0.396S146.701,479.779,146.779,480.156z"/>
	<path fill="#24C3EF" d="M153.039,484.541c0-1.764,0.458-3.162,1.372-4.194s2.144-1.548,3.687-1.548
		c1.549,0,2.782,0.516,3.696,1.548s1.372,2.431,1.372,4.194s-0.458,3.162-1.372,4.194s-2.147,1.548-3.696,1.548
		c-1.543,0-2.772-0.516-3.687-1.548S153.039,486.305,153.039,484.541z M158.098,481.123c-0.684,0-1.221,0.301-1.611,0.903
		s-0.586,1.44-0.586,2.515s0.195,1.912,0.586,2.515s0.928,0.903,1.611,0.903c0.69,0,1.23-0.301,1.621-0.903s0.586-1.44,0.586-2.515
		s-0.195-1.912-0.586-2.515S158.788,481.123,158.098,481.123z"/>
	<path fill="#24C3EF" d="M175.383,479.062L171.906,490h-3.525l-3.477-10.938h2.9l2.334,8.535l2.344-8.535H175.383z"/>
	<path fill="#24C3EF" d="M178.322,479.062h5.664v8.74h3.555V490h-9.98v-2.197h3.564v-6.543h-2.803V479.062z M181.125,473.74h2.861
		v3.34h-2.861V473.74z"/>
	<path fill="#24C3EF" d="M198.967,489.463c-0.664,0.273-1.341,0.479-2.031,0.615s-1.419,0.205-2.188,0.205
		c-1.83,0-3.228-0.49-4.194-1.47s-1.45-2.392-1.45-4.233c0-1.783,0.465-3.193,1.396-4.229s2.201-1.553,3.809-1.553
		c1.621,0,2.879,0.48,3.774,1.44s1.343,2.313,1.343,4.058v1.162h-7.412c0.006,0.859,0.26,1.5,0.762,1.924s1.25,0.635,2.246,0.635
		c0.658,0,1.305-0.094,1.943-0.283s1.305-0.488,2.002-0.898V489.463z M196.545,483.311c-0.013-0.756-0.207-1.326-0.581-1.714
		s-0.926-0.581-1.655-0.581c-0.658,0-1.182,0.2-1.572,0.601s-0.622,0.968-0.693,1.704L196.545,483.311z"/>
	<path fill="#24C3EF" d="M205.607,483.477h-1.543v-2.539h1.543c0.716,0,1.271-0.142,1.665-0.425s0.591-0.683,0.591-1.196
		c0-0.541-0.197-0.962-0.591-1.265s-0.949-0.454-1.665-0.454c-0.547,0-1.133,0.068-1.758,0.205s-1.273,0.336-1.943,0.596v-2.617
		c0.67-0.201,1.332-0.356,1.982-0.464s1.276-0.161,1.875-0.161c1.537,0,2.734,0.336,3.594,1.006s1.289,1.596,1.289,2.773
		c0,0.865-0.248,1.574-0.742,2.124s-1.201,0.909-2.119,1.079c1.042,0.182,1.836,0.598,2.383,1.245s0.82,1.499,0.82,2.554
		c0,1.412-0.453,2.49-1.357,3.232s-2.22,1.113-3.945,1.113c-0.736,0-1.46-0.062-2.173-0.186s-1.395-0.303-2.046-0.537v-2.676
		c0.612,0.307,1.273,0.539,1.982,0.698s1.455,0.239,2.236,0.239s1.4-0.181,1.855-0.542s0.684-0.849,0.684-1.46
		c0-0.748-0.228-1.326-0.684-1.733S206.441,483.477,205.607,483.477z"/>
	<path fill="#24C3EF" d="M216.672,486.416h3.262V490h-3.262V486.416z"/>
	<path fill="#24C3EF" d="M232.629,489.58c0,1.641-0.294,2.811-0.884,3.511s-1.567,1.05-2.935,1.05h-3.086v-2.197h2.285
		c0.638,0,1.09-0.18,1.357-0.537s0.4-0.967,0.4-1.826v-8.32h-2.9v-2.197h5.762V489.58z M232.629,477.08h-2.861v-3.34h2.861V477.08z"
		/>
	<path fill="#24C3EF" d="M246.047,479.404v2.5c-0.527-0.338-1.076-0.594-1.646-0.767s-1.141-0.259-1.714-0.259
		c-0.638,0-1.12,0.093-1.445,0.278s-0.488,0.46-0.488,0.825c0,0.521,0.697,0.943,2.09,1.27l0.107,0.029l0.82,0.195
		c1.042,0.248,1.805,0.646,2.29,1.196s0.728,1.294,0.728,2.231c0,1.127-0.37,1.971-1.108,2.534s-1.851,0.845-3.335,0.845
		c-0.658,0-1.332-0.057-2.021-0.171s-1.39-0.284-2.1-0.513v-2.5c0.631,0.357,1.274,0.631,1.929,0.82s1.288,0.283,1.899,0.283
		c0.67,0,1.178-0.098,1.523-0.293s0.518-0.479,0.518-0.85c0-0.365-0.122-0.645-0.366-0.84s-0.825-0.404-1.743-0.625l-0.791-0.176
		c-1.094-0.248-1.891-0.635-2.393-1.162s-0.752-1.234-0.752-2.119c0-1.055,0.381-1.875,1.143-2.461s1.833-0.879,3.213-0.879
		c0.619,0,1.235,0.051,1.851,0.151S245.467,479.203,246.047,479.404z"/>
	<path fill="#ECF3F6" d="M253.889,474.805h2.461v2.012l-1.924,3.74h-1.494l0.957-3.74V474.805z"/>
	<path fill="#ECF3F6" d="M263.85,473.848h1.562c0.983,1.537,1.715,3.041,2.197,4.512s0.723,2.934,0.723,4.385
		c0,1.465-0.241,2.934-0.723,4.404s-1.214,2.975-2.197,4.512h-1.562c0.866-1.51,1.512-3.004,1.938-4.482s0.64-2.955,0.64-4.434
		c0-1.484-0.213-2.965-0.64-4.443S264.715,475.338,263.85,473.848z"/>
	<path fill="#ECF3F6" d="M276.809,486.475h3.047v2.588l-1.924,3.73h-2.09l0.967-3.73V486.475z M276.682,479.072h3.047v3.525h-3.047
		V479.072z"/>
</g>
<line fill-rule="evenodd" clip-rule="evenodd" fill="none" stroke="#22637B" stroke-width="2" stroke-miterlimit="10" x1="67.061" y1="260" x2="429" y2="260"/>
<line fill-rule="evenodd" clip-rule="evenodd" fill="none" stroke="#22637B" stroke-width="2" stroke-miterlimit="10" x1="67.061" y1="398" x2="429" y2="398"/>
</svg>
