<?xml version="1.0" encoding="utf-8"?>
<!-- Generator: Adobe Illustrator 16.0.0, SVG Export Plug-In . SVG Version: 6.00 Build 0)  -->
<!DOCTYPE svg PUBLIC "-//W3C//DTD SVG 1.1//EN" "http://www.w3.org/Graphics/SVG/1.1/DTD/svg11.dtd">
<svg version="1.1" id="Layer_1" xmlns="http://www.w3.org/2000/svg" xmlns:xlink="http://www.w3.org/1999/xlink" x="0px" y="0px"
	 width="800px" height="600px" viewBox="0 0 800 600" enable-background="new 0 0 800 600" xml:space="preserve">
<path fill="#F26349" d="M275.366,245.933H124.611c-3.93,0-7.125,3.186-7.125,7.124v141.886c0,3.936,3.195,7.127,7.125,7.127h150.754
	c3.935,0,7.121-3.191,7.121-7.127V253.057C282.487,249.119,279.3,245.933,275.366,245.933z M160.667,253.015
	c2.736,0,4.958,2.224,4.958,4.962c0,2.738-2.223,4.962-4.958,4.962c-2.74,0-4.958-2.224-4.958-4.962
	C155.709,255.239,157.927,253.015,160.667,253.015z M144.863,253.015c2.737,0,4.96,2.224,4.96,4.962c0,2.738-2.223,4.962-4.96,4.962
	c-2.74,0-4.958-2.224-4.958-4.962C139.904,255.239,142.123,253.015,144.863,253.015z M124.104,257.978
	c0-2.739,2.218-4.962,4.958-4.962c2.735,0,4.958,2.224,4.958,4.962s-2.224,4.962-4.958,4.962
	C126.322,262.939,124.104,260.716,124.104,257.978z M274.932,394.039H125.047V268.132h149.885V394.039z"/>
<path fill="#51B152" d="M611.794,299.665V287.79l-1.681-0.547l-12.736-4.15l-3.399-8.19l6.533-13.796l-8.415-8.396l-1.574,0.798
	l-11.946,6.055l-8.205-3.392l-5.157-14.368h-11.896l-0.549,1.678l-4.157,12.712l-8.202,3.391l-13.828-6.52l-8.412,8.397l0.8,1.572
	l6.066,11.926l-3.396,8.185l-14.397,5.146v11.876l1.682,0.547l12.737,4.149l3.397,8.188l-6.531,13.798l8.41,8.397l1.577-0.8
	l11.947-6.055l8.204,3.393l5.154,14.367h11.897l0.55-1.679l4.159-12.711l8.204-3.393l13.824,6.521l8.414-8.398l-0.8-1.573L594,313
	l3.398-8.189L611.794,299.665z M559.517,310.607c-9.2,0-16.66-7.445-16.66-16.629c0-9.183,7.46-16.628,16.66-16.628
	c9.201,0,16.66,7.445,16.66,16.628C576.177,303.162,568.718,310.607,559.517,310.607z"/>
<path opacity="0.5" fill="#51B152" enable-background="new    " d="M637.94,363.993v-6.977l-0.987-0.321l-7.483-2.438l-1.997-4.812
	l3.84-8.104l-4.944-4.934l-0.926,0.47l-7.019,3.557l-4.82-1.991l-3.029-8.441h-6.989l-0.322,0.986l-2.442,7.468l-4.82,1.991
	l-8.124-3.83l-4.942,4.934l0.471,0.924l3.563,7.007l-1.995,4.809l-8.46,3.023v6.978l0.988,0.321l7.483,2.438l1.995,4.812
	l-3.837,8.105l4.941,4.935l0.927-0.471l7.02-3.557l4.818,1.992l3.029,8.439h6.99l0.322-0.984l2.442-7.469l4.82-1.992l8.122,3.831
	l4.942-4.935l-0.47-0.925l-3.564-7.004l1.996-4.812L637.94,363.993z M607.227,370.422c-5.404,0-9.787-4.374-9.787-9.769
	c0-5.396,4.383-9.771,9.787-9.771c5.406,0,9.788,4.374,9.788,9.771C617.015,366.048,612.633,370.422,607.227,370.422z"/>
<path opacity="0.25" fill="#51B152" enable-background="new    " d="M672.057,332.397v-5.008l-0.707-0.229l-5.357-1.749
	l-1.432-3.453l2.75-5.816l-3.54-3.54l-0.663,0.336l-5.026,2.554l-3.452-1.431l-2.17-6.058h-5.006l-0.23,0.708l-1.75,5.359
	l-3.45,1.43l-5.818-2.749l-3.539,3.54l0.337,0.663l2.552,5.028l-1.429,3.449l-6.059,2.17v5.008l0.708,0.229l5.358,1.75l1.431,3.452
	l-2.748,5.817l3.538,3.54l0.664-0.338l5.025-2.553l3.452,1.432l2.169,6.057h5.007l0.23-0.707l1.75-5.359l3.452-1.43l5.815,2.749
	l3.54-3.541l-0.336-0.663l-2.553-5.026l1.43-3.451L672.057,332.397z M650.062,337.011c-3.872,0-7.012-3.139-7.012-7.011
	s3.14-7.011,7.012-7.011c3.87,0,7.01,3.139,7.01,7.011S653.933,337.011,650.062,337.011z"/>
<g>
		<path fill="#9FD9D8" d="M502.922,98.142c0.756-0.405,1.428-0.903,2.016-1.491c0.589-0.588,1.058-1.281,1.407-2.078    c0.351-0.799,0.525-1.688,0.525-2.668c0-2.239-0.75-4.038-2.247-5.396c-1.498-1.358-3.886-2.037-7.161-2.037h-6.216v26.25h1.722    v-10.92l5.997-0.378l7.106,11.298h1.975l-7.477-11.634C501.382,98.863,502.166,98.548,502.922,98.142z M498.067,97.994    l-5.101,0.168V86.024h4.257c2.642,0,4.607,0.512,5.9,1.533c1.292,1.022,1.938,2.472,1.938,4.347c0,0.924-0.195,1.758-0.59,2.5    c-0.394,0.742-0.921,1.371-1.581,1.89s-1.403,0.924-2.232,1.218C499.829,97.806,498.967,97.967,498.067,97.994z M529.423,100.767    c0,2.8-0.637,4.971-1.911,6.511c-1.273,1.539-3.228,2.31-5.857,2.31c-2.576,0-4.517-0.757-5.817-2.269    c-1.301-1.512-1.953-3.584-1.953-6.216V84.471h-1.722v16.758c0,3.108,0.812,5.537,2.436,7.287s3.962,2.625,7.016,2.625    c1.566,0,2.938-0.245,4.115-0.734c1.177-0.49,2.17-1.184,2.981-2.08c0.812-0.895,1.421-1.98,1.827-3.254    c0.405-1.274,0.609-2.695,0.609-4.264V84.471h-1.724V100.767L529.423,100.767z M555.295,108.326l-15.839-23.855h-2.053v26.25    h1.722V86.907l15.918,24.066h1.974V84.471h-1.722V108.326L555.295,108.326z M581.797,108.326l-15.839-23.855h-2.053v26.25h1.722    V86.907l15.918,24.066h1.975V84.471h-1.723V108.326L581.797,108.326z M590.407,110.721H605.4v-1.555h-13.271V98.373h11.088v-1.555    h-11.088V86.024H605.4V84.47h-14.993V110.721L590.407,110.721z M620.311,99.087c0.812-0.224,1.597-0.539,2.353-0.945    c0.756-0.405,1.429-0.903,2.017-1.491c0.588-0.588,1.058-1.281,1.406-2.078c0.352-0.799,0.525-1.688,0.525-2.668    c0-2.239-0.749-4.038-2.247-5.396c-1.498-1.358-3.886-2.037-7.161-2.037h-6.216v26.25h1.722v-10.92l5.997-0.378l7.106,11.298    h1.975L620.311,99.087z M617.808,97.994l-5.1,0.168V86.024h4.258c2.642,0,4.606,0.512,5.899,1.533    c1.293,1.022,1.938,2.472,1.938,4.347c0,0.924-0.196,1.758-0.591,2.5c-0.394,0.742-0.92,1.371-1.58,1.89s-1.405,0.924-2.233,1.218    C619.57,97.806,618.707,97.967,617.808,97.994z" transform="translate(50,0)"/>
</g>
<g>
	<g>
		<path fill="#9FD9D8" d="M129.163,98.919c0.756-0.405,1.428-0.903,2.016-1.491c0.588-0.588,1.056-1.281,1.407-2.078
			c0.35-0.799,0.525-1.688,0.525-2.668c0-2.239-0.75-4.038-2.247-5.396c-1.498-1.358-3.885-2.037-7.161-2.037h-6.216v26.25h1.722
			v-10.92l5.997-0.378l7.107,11.298h1.974l-7.476-11.634C127.623,99.641,128.407,99.325,129.163,98.919z M124.309,98.771l-5.1,0.168
			V86.802h4.257c2.641,0,4.606,0.512,5.899,1.533c1.293,1.022,1.939,2.472,1.939,4.347c0,0.924-0.197,1.758-0.59,2.5
			c-0.394,0.742-0.92,1.371-1.581,1.89c-0.661,0.519-1.405,0.924-2.234,1.218C126.071,98.583,125.208,98.744,124.309,98.771z
			 M139.032,111.498h14.994v-1.555h-13.272V99.15h11.087v-1.555h-11.087V86.802h13.272v-1.554h-14.994V111.498z M177.504,109.104
			l-15.838-23.855h-2.055v26.25h1.723V87.684l15.918,24.066h1.975V85.248h-1.723V109.104L177.504,109.104z M202.578,88.839
			c-1.205-1.134-2.66-2.016-4.368-2.646c-1.708-0.63-3.626-0.945-5.755-0.945h-6.342v26.25h6.09c2.213,0,4.193-0.294,5.943-0.882
			c1.75-0.589,3.234-1.449,4.452-2.583c1.218-1.135,2.149-2.527,2.793-4.18c0.644-1.651,0.966-3.541,0.966-5.67
			c0-1.903-0.329-3.653-0.986-5.25C204.713,91.338,203.781,89.973,202.578,88.839z M203.646,103.537
			c-0.604,1.461-1.453,2.663-2.548,3.604c-1.095,0.941-2.394,1.645-3.896,2.107c-1.501,0.465-3.15,0.695-4.946,0.695h-4.421V86.802
			h4.421c1.937,0,3.663,0.274,5.179,0.823c1.516,0.548,2.801,1.328,3.853,2.339c1.053,1.012,1.86,2.228,2.422,3.646
			c0.562,1.42,0.842,3,0.842,4.742C204.552,100.348,204.25,102.076,203.646,103.537z M211.775,111.498h14.994v-1.555h-13.271V99.15
			h11.088v-1.555h-11.088V86.802h13.271v-1.554h-14.994V111.498z M244.031,98.919c0.756-0.405,1.428-0.903,2.016-1.491
			c0.588-0.588,1.057-1.281,1.407-2.078c0.35-0.799,0.524-1.688,0.524-2.668c0-2.239-0.749-4.038-2.246-5.396
			c-1.498-1.358-3.885-2.037-7.161-2.037h-6.216v26.25h1.722v-10.92l5.997-0.378l7.107,11.298h1.974l-7.476-11.634
			C242.49,99.641,243.275,99.325,244.031,98.919z M239.177,98.771l-5.1,0.168V86.802h4.257c2.641,0,4.607,0.512,5.9,1.533
			c1.293,1.022,1.938,2.472,1.938,4.347c0,0.924-0.196,1.758-0.59,2.5c-0.394,0.742-0.921,1.371-1.581,1.89
			c-0.66,0.519-1.404,0.924-2.234,1.218C240.939,98.583,240.076,98.744,239.177,98.771z M253.9,111.498h14.994v-1.555h-13.271V99.15
			h11.088v-1.555h-11.088V86.802h13.271v-1.554H253.9V111.498z M283.805,99.864c0.811-0.224,1.596-0.539,2.352-0.945
			c0.756-0.405,1.428-0.903,2.016-1.491c0.588-0.588,1.057-1.281,1.407-2.078c0.35-0.799,0.524-1.688,0.524-2.668
			c0-2.239-0.749-4.038-2.246-5.396c-1.498-1.358-3.885-2.037-7.161-2.037h-6.216v26.25h1.722v-10.92l5.997-0.378l7.107,11.298
			h1.974L283.805,99.864z M281.302,98.771l-5.1,0.168V86.802h4.257c2.641,0,4.607,0.512,5.9,1.533
			c1.293,1.022,1.938,2.472,1.938,4.347c0,0.924-0.196,1.758-0.59,2.5c-0.394,0.742-0.921,1.371-1.581,1.89
			c-0.66,0.519-1.404,0.924-2.234,1.218C283.064,98.583,282.201,98.744,281.302,98.771z"/>
	</g>
</g>
<path fill="none" stroke="#262C35" stroke-width="4" stroke-linecap="round" stroke-miterlimit="10" stroke-dasharray="18" d="
	M409.559,459.003v-272"/>
<g>
	<g>
		<path fill="#7FBBC6" d="M460.854,321.597l-10.221-10.229c-1.398-1.402-3.669-1.402-5.07,0c-0.7,0.7-1.052,1.619-1.052,2.537
			c0,0.919,0.352,1.839,1.052,2.538l3.771,3.774h-80.436l3.813-3.781c1.409-1.399,1.409-3.67,0-5.07
			c-1.413-1.398-3.701-1.398-5.11,0l-9.667,9.589c-1.412,1.402-1.412,3.672,0,5.07l10.299,10.217c1.41,1.4,3.697,1.4,5.109,0
			c0.707-0.699,1.06-1.617,1.06-2.534s-0.353-1.836-1.06-2.535l-3.813-3.783h80.452l-0.008,0.021l-3.783,3.785
			c-1.398,1.4-1.398,3.675,0,5.077c1.4,1.398,3.673,1.398,5.07,0l9.595-9.602C462.256,325.27,462.256,322.997,460.854,321.597z"/>
	</g>
</g>
<g enable-background="new    ">
	<path fill="#9FD9D8" d="M324.576,506.35l-5.125,13.551h-1.75l-5.175-13.575L312.251,520h-1.575l0.525-15.625h2.15l5.275,13.8
		l5.2-13.8h2.125l0.5,15.625h-1.625L324.576,506.35z"/>
	<path fill="#9FD9D8" d="M330.076,520v-15.625h9.425v1.475h-7.85v5.625h6.55v1.426h-6.55v5.625h7.85V520H330.076z"/>
	<path fill="#9FD9D8" d="M346.726,518.9c0.55,0,1.05-0.075,1.5-0.226c0.45-0.149,0.837-0.358,1.163-0.625
		c0.325-0.267,0.579-0.579,0.762-0.938c0.183-0.358,0.275-0.745,0.275-1.162c0-0.45-0.092-0.842-0.275-1.175
		c-0.184-0.334-0.446-0.625-0.788-0.875s-0.754-0.471-1.237-0.663c-0.483-0.191-1.034-0.379-1.65-0.562
		c-0.55-0.166-1.096-0.358-1.638-0.575c-0.542-0.216-1.029-0.491-1.462-0.824c-0.434-0.334-0.784-0.738-1.05-1.213
		c-0.267-0.475-0.4-1.062-0.4-1.763c0-0.616,0.127-1.188,0.381-1.712c0.254-0.525,0.604-0.976,1.05-1.351
		c0.446-0.375,0.977-0.666,1.594-0.875c0.616-0.208,1.283-0.312,2-0.312c0.9,0,1.741,0.115,2.525,0.345
		c0.783,0.229,1.508,0.557,2.175,0.982l-0.575,1.398c-0.584-0.4-1.238-0.717-1.963-0.95c-0.725-0.233-1.438-0.351-2.137-0.351
		c-0.583,0-1.092,0.071-1.525,0.213c-0.434,0.143-0.796,0.339-1.088,0.589c-0.292,0.251-0.508,0.538-0.65,0.864
		c-0.142,0.325-0.212,0.663-0.212,1.014c0,0.435,0.091,0.806,0.274,1.114c0.183,0.31,0.448,0.581,0.797,0.814
		s0.764,0.446,1.246,0.639s1.022,0.38,1.621,0.563c0.564,0.167,1.117,0.363,1.657,0.588c0.54,0.226,1.022,0.514,1.446,0.864
		s0.764,0.776,1.022,1.277s0.387,1.102,0.387,1.803c0,0.651-0.129,1.253-0.388,1.804c-0.259,0.551-0.617,1.026-1.075,1.427
		c-0.458,0.401-1.012,0.714-1.662,0.939c-0.65,0.225-1.367,0.338-2.15,0.338c-0.95,0-1.846-0.13-2.688-0.388
		s-1.621-0.612-2.337-1.062l0.575-1.425c0.633,0.434,1.316,0.783,2.05,1.05S345.826,518.9,346.726,518.9z"/>
	<path fill="#9FD9D8" d="M359.1,518.9c0.55,0,1.05-0.075,1.5-0.226c0.45-0.149,0.837-0.358,1.163-0.625
		c0.325-0.267,0.579-0.579,0.762-0.938c0.183-0.358,0.275-0.745,0.275-1.162c0-0.45-0.092-0.842-0.275-1.175
		c-0.184-0.334-0.446-0.625-0.788-0.875s-0.754-0.471-1.237-0.663c-0.483-0.191-1.034-0.379-1.65-0.562
		c-0.55-0.166-1.096-0.358-1.638-0.575c-0.542-0.216-1.029-0.491-1.462-0.824c-0.434-0.334-0.784-0.738-1.05-1.213
		c-0.267-0.475-0.4-1.062-0.4-1.763c0-0.616,0.127-1.188,0.381-1.712c0.254-0.525,0.604-0.976,1.05-1.351
		c0.446-0.375,0.977-0.666,1.594-0.875c0.616-0.208,1.283-0.312,2-0.312c0.9,0,1.741,0.115,2.525,0.345
		c0.783,0.229,1.508,0.557,2.175,0.982l-0.575,1.398c-0.584-0.4-1.238-0.717-1.963-0.95c-0.725-0.233-1.438-0.351-2.137-0.351
		c-0.583,0-1.092,0.071-1.525,0.213c-0.434,0.143-0.796,0.339-1.088,0.589c-0.292,0.251-0.508,0.538-0.65,0.864
		c-0.142,0.325-0.212,0.663-0.212,1.014c0,0.435,0.091,0.806,0.274,1.114c0.183,0.31,0.448,0.581,0.797,0.814
		s0.764,0.446,1.246,0.639s1.022,0.38,1.621,0.563c0.564,0.167,1.117,0.363,1.657,0.588c0.54,0.226,1.022,0.514,1.446,0.864
		s0.764,0.776,1.022,1.277s0.387,1.102,0.387,1.803c0,0.651-0.129,1.253-0.388,1.804c-0.259,0.551-0.617,1.026-1.075,1.427
		c-0.458,0.401-1.012,0.714-1.662,0.939c-0.65,0.225-1.367,0.338-2.15,0.338c-0.95,0-1.846-0.13-2.688-0.388
		s-1.621-0.612-2.337-1.062l0.575-1.425c0.633,0.434,1.316,0.783,2.05,1.05S358.2,518.9,359.1,518.9z"/>
	<path fill="#9FD9D8" d="M379.375,520h-1.625l-1.65-4.475h-7.075l-1.65,4.475h-1.625l5.925-15.625h1.875L379.375,520z
		 M372.575,505.975l-3,8.125h5.975L372.575,505.975z"/>
	<path fill="#9FD9D8" d="M391.112,519.938c-0.941,0.258-1.862,0.387-2.762,0.387c-1.134,0-2.163-0.192-3.087-0.575
		c-0.925-0.383-1.721-0.925-2.388-1.625c-0.667-0.7-1.179-1.55-1.538-2.55s-0.538-2.116-0.538-3.351c0-1.25,0.188-2.375,0.562-3.375
		s0.9-1.857,1.575-2.574s1.471-1.267,2.388-1.65c0.916-0.383,1.925-0.575,3.025-0.575c0.966,0,1.887,0.127,2.762,0.381
		s1.604,0.554,2.188,0.897l-0.525,1.447c-0.583-0.384-1.267-0.696-2.05-0.938c-0.784-0.242-1.583-0.363-2.4-0.363
		c-0.85,0-1.634,0.151-2.35,0.452c-0.717,0.302-1.337,0.736-1.863,1.305c-0.525,0.569-0.938,1.268-1.237,2.096
		s-0.45,1.777-0.45,2.848c0,1.038,0.141,1.97,0.424,2.798s0.686,1.535,1.209,2.121c0.523,0.585,1.147,1.033,1.871,1.342
		c0.723,0.31,1.533,0.465,2.431,0.465c0.748,0,1.434-0.088,2.057-0.264c0.623-0.176,1.184-0.406,1.683-0.691v-4.271h-4.525v-1.425
		h6.1v6.529C392.908,519.295,392.054,519.682,391.112,519.938z"/>
	<path fill="#9FD9D8" d="M397.25,520v-15.625h9.425v1.475h-7.85v5.625h6.55v1.426h-6.55v5.625h7.85V520H397.25z"/>
	<path fill="#9FD9D8" d="M424.449,506.725c-0.633-0.399-1.309-0.708-2.023-0.925c-0.717-0.216-1.492-0.325-2.326-0.325
		c-0.85,0-1.633,0.151-2.35,0.452c-0.717,0.302-1.338,0.736-1.863,1.305c-0.525,0.569-0.938,1.268-1.237,2.096
		s-0.45,1.777-0.45,2.848c0,1.038,0.142,1.97,0.426,2.798c0.283,0.828,0.688,1.535,1.212,2.121c0.524,0.585,1.149,1.033,1.876,1.342
		c0.725,0.31,1.537,0.465,2.438,0.465c0.85,0,1.658-0.136,2.424-0.407c0.768-0.271,1.418-0.611,1.951-1.019l0.299,1.575
		c-0.582,0.384-1.283,0.692-2.1,0.925c-0.816,0.233-1.684,0.351-2.6,0.351c-1.133,0-2.162-0.192-3.088-0.575
		s-1.721-0.925-2.388-1.625s-1.179-1.55-1.538-2.55c-0.357-1-0.537-2.116-0.537-3.351c0-1.25,0.188-2.375,0.562-3.375
		s0.9-1.857,1.575-2.574s1.471-1.267,2.388-1.65c0.916-0.383,1.926-0.575,3.025-0.575c0.949,0,1.846,0.123,2.688,0.369
		c0.842,0.245,1.555,0.54,2.137,0.884L424.449,506.725z"/>
	<path fill="#9FD9D8" d="M438.824,520v-7.125h-9.199V520h-1.576v-15.625h1.576v7.075h9.199v-7.075h1.574V520H438.824z"/>
	<path fill="#9FD9D8" d="M456.398,520h-1.625l-1.65-4.475h-7.074l-1.65,4.475h-1.625l5.926-15.625h1.875L456.398,520z
		 M449.6,505.975l-3,8.125h5.975L449.6,505.975z"/>
	<path fill="#9FD9D8" d="M469.424,504.375h1.574v15.775h-1.75l-8.898-13.525V520h-1.576v-15.625h1.797l8.854,13.4V504.375z"/>
	<path fill="#9FD9D8" d="M485.674,504.375h1.574v15.775h-1.75l-8.898-13.525V520h-1.576v-15.625h1.797l8.854,13.4V504.375z"/>
	<path fill="#9FD9D8" d="M491.273,520v-15.625h9.426v1.475h-7.85v5.625h6.549v1.426h-6.549v5.625h7.85V520H491.273z"/>
	<path fill="#9FD9D8" d="M503.949,520v-15.625h1.574V518.5h7.725v1.5H503.949z"/>
</g>
</svg>
