<?xml version="1.0" encoding="utf-8"?>
<!-- Generator: Adobe Illustrator 16.0.0, SVG Export Plug-In . SVG Version: 6.00 Build 0)  -->
<!DOCTYPE svg PUBLIC "-//W3C//DTD SVG 1.1//EN" "http://www.w3.org/Graphics/SVG/1.1/DTD/svg11.dtd">
<svg version="1.1" id="Layer_1" xmlns="http://www.w3.org/2000/svg" xmlns:xlink="http://www.w3.org/1999/xlink" x="0px" y="0px"
	 width="400px" height="220px" viewBox="0 0 400 220" enable-background="new 0 0 400 220" xml:space="preserve">
<path fill="#EF533C" d="M336.55,69.408l56.443,80.517H280.105L336.55,69.408z"/>
<path fill-rule="evenodd" clip-rule="evenodd" fill="#EF533C" d="M187.504,48.666c33.645,0,60.918,27.311,60.918,61
	s-27.273,61-60.918,61c-33.644,0-60.918-27.311-60.918-61S153.86,48.666,187.504,48.666z"/>
<path fill-rule="evenodd" clip-rule="evenodd" fill="#EF533C" d="M8,69h81.224v81.332H8V69z"/>
<g>
	<path fill="#FFFFFF" d="M83.753,128.377h-10.23V98.215l10.23-1.254v4.488c1.804-3.168,4.268-4.752,7.392-4.752
		c1.759,0,3.454,0.419,5.082,1.254l-2.046,8.976c-1.232-0.615-2.508-0.924-3.828-0.924c-1.277,0-2.465,0.341-3.564,1.023
		c-1.1,0.683-2.112,1.838-3.036,3.465V128.377z"/>
	<path fill="#FFFFFF" d="M107.645,115.441c0.175,2.068,0.946,3.662,2.31,4.785c1.363,1.121,3.3,1.683,5.808,1.683
		c1.672,0,3.376-0.274,5.115-0.825c1.737-0.55,3.376-1.264,4.917-2.145l0.99,7.854c-1.541,0.792-3.355,1.408-5.445,1.848
		c-2.09,0.439-4.257,0.66-6.501,0.66c-2.597,0-4.95-0.353-7.062-1.056c-2.112-0.704-3.917-1.737-5.412-3.103
		c-1.497-1.363-2.651-3.046-3.465-5.049c-0.815-2.002-1.221-4.278-1.221-6.83c0-2.509,0.406-4.786,1.221-6.832
		c0.813-2.046,1.957-3.784,3.432-5.214c1.474-1.429,3.234-2.541,5.28-3.333s4.279-1.188,6.699-1.188
		c4.356,0,7.689,1.188,9.999,3.564s3.465,5.478,3.465,9.306c0,0.836-0.056,1.783-0.165,2.837c-0.11,1.057-0.275,1.914-0.495,2.574
		l-19.47,0.33V115.441z M118.337,110.161v-0.594c0-1.848-0.386-3.289-1.155-4.323c-0.77-1.034-1.947-1.551-3.531-1.551
		c-1.76,0-3.146,0.65-4.158,1.947c-1.013,1.298-1.606,2.828-1.782,4.587L118.337,110.161z"/>
	<path fill="#FFFFFF" d="M153.514,128.377v-18.15c0-1.848-0.38-3.124-1.14-3.828c-0.76-0.703-1.813-1.056-3.159-1.056
		c-1.128,0-2.159,0.231-3.093,0.693c-0.934,0.462-1.726,1.001-2.377,1.617v20.724h-10.23V98.215l10.23-1.254l-0.066,5.016
		c1.355-1.54,2.906-2.805,4.655-3.795c1.749-0.99,3.607-1.485,5.575-1.485c3.1,0,5.514,0.936,7.243,2.805
		c1.727,1.871,2.591,4.455,2.591,7.755v21.12H153.514z"/>
	<path fill="#FFFFFF" d="M190.869,84.751l10.229-1.254v44.88h-10.229l0.066-3.168c-0.969,1.013-2.156,1.947-3.564,2.805
		c-1.408,0.858-3.08,1.287-5.016,1.287c-1.893,0-3.642-0.374-5.247-1.122c-1.606-0.747-2.993-1.815-4.158-3.2
		c-1.166-1.387-2.079-3.059-2.739-5.017c-0.66-1.957-0.99-4.146-0.99-6.567c0-2.551,0.417-4.851,1.25-6.896
		c0.833-2.046,1.952-3.795,3.355-5.247c1.404-1.452,3.027-2.562,4.87-3.333c1.842-0.77,3.794-1.155,5.856-1.155
		c2.192,0,4.299,0.353,6.316,1.056V84.751z M188.848,104.65c-0.784-0.241-1.654-0.363-2.611-0.363c-2.131,0-3.795,0.792-4.99,2.376
		c-1.197,1.584-1.795,3.652-1.795,6.204c0,2.64,0.587,4.686,1.762,6.138c1.174,1.452,2.696,2.179,4.567,2.179
		c1.13,0,2.099-0.188,2.903-0.562c0.804-0.374,1.533-0.892,2.186-1.552v-13.463C190.305,105.211,189.63,104.892,188.848,104.65z"/>
	<path fill="#FFFFFF" d="M216.741,115.441c0.175,2.068,0.945,3.662,2.31,4.785c1.363,1.121,3.3,1.683,5.809,1.683
		c1.671,0,3.376-0.274,5.114-0.825c1.738-0.55,3.377-1.264,4.917-2.145l0.99,7.854c-1.541,0.792-3.355,1.408-5.445,1.848
		s-4.257,0.66-6.501,0.66c-2.597,0-4.949-0.353-7.062-1.056c-2.112-0.704-3.917-1.737-5.412-3.103
		c-1.496-1.363-2.651-3.046-3.465-5.049c-0.814-2.002-1.221-4.278-1.221-6.83c0-2.509,0.406-4.786,1.221-6.832
		c0.813-2.046,1.957-3.784,3.432-5.214c1.474-1.429,3.234-2.541,5.28-3.333s4.278-1.188,6.699-1.188
		c4.355,0,7.688,1.188,9.999,3.564c2.31,2.376,3.465,5.478,3.465,9.306c0,0.836-0.056,1.783-0.165,2.837
		c-0.11,1.057-0.275,1.914-0.495,2.574l-19.47,0.33V115.441z M227.433,110.161v-0.594c0-1.848-0.386-3.289-1.154-4.323
		c-0.771-1.034-1.947-1.551-3.531-1.551c-1.761,0-3.146,0.65-4.158,1.947c-1.013,1.298-1.606,2.828-1.782,4.587L227.433,110.161z"/>
	<path fill="#FFFFFF" d="M252.843,128.377h-10.23V98.215l10.23-1.254v4.488c1.804-3.168,4.267-4.752,7.392-4.752
		c1.76,0,3.454,0.419,5.082,1.254l-2.046,8.976c-1.232-0.615-2.508-0.924-3.828-0.924c-1.276,0-2.465,0.341-3.563,1.023
		c-1.101,0.683-2.112,1.838-3.036,3.465V128.377z"/>
	<path fill="#FFFFFF" d="M276.734,115.441c0.175,2.068,0.945,3.662,2.31,4.785c1.363,1.121,3.3,1.683,5.809,1.683
		c1.671,0,3.376-0.274,5.114-0.825c1.738-0.55,3.377-1.264,4.917-2.145l0.99,7.854c-1.541,0.792-3.355,1.408-5.445,1.848
		s-4.257,0.66-6.501,0.66c-2.597,0-4.949-0.353-7.062-1.056c-2.112-0.704-3.917-1.737-5.412-3.103
		c-1.496-1.363-2.651-3.046-3.465-5.049c-0.814-2.002-1.221-4.278-1.221-6.83c0-2.509,0.406-4.786,1.221-6.832
		c0.813-2.046,1.957-3.784,3.432-5.214c1.474-1.429,3.234-2.541,5.28-3.333s4.278-1.188,6.699-1.188
		c4.355,0,7.688,1.188,9.999,3.564c2.31,2.376,3.465,5.478,3.465,9.306c0,0.836-0.056,1.783-0.165,2.837
		c-0.11,1.057-0.275,1.914-0.495,2.574l-19.47,0.33V115.441z M287.426,110.161v-0.594c0-1.848-0.386-3.289-1.154-4.323
		c-0.771-1.034-1.947-1.551-3.531-1.551c-1.761,0-3.146,0.65-4.158,1.947c-1.013,1.298-1.606,2.828-1.782,4.587L287.426,110.161z"/>
	<path fill="#FFFFFF" d="M312.835,128.377h-10.23V98.215l10.23-1.254v4.488c1.804-3.168,4.267-4.752,7.392-4.752
		c1.76,0,3.454,0.419,5.082,1.254l-2.046,8.976c-1.232-0.615-2.508-0.924-3.828-0.924c-1.276,0-2.465,0.341-3.563,1.023
		c-1.101,0.683-2.112,1.838-3.036,3.465V128.377z"/>
</g>
</svg>
