<?xml version="1.0" encoding="utf-8"?>
<svg xmlns="http://www.w3.org/2000/svg" x="0px" y="0px" width="800px" height="600px">
<path fill="#9FD9D8" d="M502.922,98.142c0.756-0.405,1.428-0.903,2.016-1.491c0.589-0.588,1.058-1.281,1.407-2.078    c0.351-0.799,0.525-1.688,0.525-2.668c0-2.239-0.75-4.038-2.247-5.396c-1.498-1.358-3.886-2.037-7.161-2.037h-6.216v26.25h1.722    v-10.92l5.997-0.378l7.106,11.298h1.975l-7.477-11.634C501.382,98.863,502.166,98.548,502.922,98.142z M498.067,97.994    l-5.101,0.168V86.024h4.257c2.642,0,4.607,0.512,5.9,1.533c1.292,1.022,1.938,2.472,1.938,4.347c0,0.924-0.195,1.758-0.59,2.5    c-0.394,0.742-0.921,1.371-1.581,1.89s-1.403,0.924-2.232,1.218C499.829,97.806,498.967,97.967,498.067,97.994z M529.423,100.767    c0,2.8-0.637,4.971-1.911,6.511c-1.273,1.539-3.228,2.31-5.857,2.31c-2.576,0-4.517-0.757-5.817-2.269    c-1.301-1.512-1.953-3.584-1.953-6.216V84.471h-1.722v16.758c0,3.108,0.812,5.537,2.436,7.287s3.962,2.625,7.016,2.625    c1.566,0,2.938-0.245,4.115-0.734c1.177-0.49,2.17-1.184,2.981-2.08c0.812-0.895,1.421-1.98,1.827-3.254    c0.405-1.274,0.609-2.695,0.609-4.264V84.471h-1.724V100.767L529.423,100.767z M555.295,108.326l-15.839-23.855h-2.053v26.25    h1.722V86.907l15.918,24.066h1.974V84.471h-1.722V108.326L555.295,108.326z M581.797,108.326l-15.839-23.855h-2.053v26.25h1.722    V86.907l15.918,24.066h1.975V84.471h-1.723V108.326L581.797,108.326z M590.407,110.721H605.4v-1.555h-13.271V98.373h11.088v-1.555    h-11.088V86.024H605.4V84.47h-14.993V110.721L590.407,110.721z M620.311,99.087c0.812-0.224,1.597-0.539,2.353-0.945    c0.756-0.405,1.429-0.903,2.017-1.491c0.588-0.588,1.058-1.281,1.406-2.078c0.352-0.799,0.525-1.688,0.525-2.668    c0-2.239-0.749-4.038-2.247-5.396c-1.498-1.358-3.886-2.037-7.161-2.037h-6.216v26.25h1.722v-10.92l5.997-0.378l7.106,11.298    h1.975L620.311,99.087z M617.808,97.994l-5.1,0.168V86.024h4.258c2.642,0,4.606,0.512,5.899,1.533    c1.293,1.022,1.938,2.472,1.938,4.347c0,0.924-0.196,1.758-0.591,2.5c-0.394,0.742-0.92,1.371-1.58,1.89s-1.405,0.924-2.233,1.218    C619.57,97.806,618.707,97.967,617.808,97.994z" transform="translate(30,0)"/>
<path fill="#9FD9D8" d="M129.163,98.919c0.756-0.405,1.428-0.903,2.016-1.491c0.588-0.588,1.056-1.281,1.407-2.078    c0.35-0.799,0.525-1.688,0.525-2.668c0-2.239-0.75-4.038-2.247-5.396c-1.498-1.358-3.885-2.037-7.161-2.037h-6.216v26.25h1.722    v-10.92l5.997-0.378l7.107,11.298h1.974l-7.476-11.634C127.623,99.641,128.407,99.325,129.163,98.919z M124.309,98.771l-5.1,0.168    V86.802h4.257c2.641,0,4.606,0.512,5.899,1.533c1.293,1.022,1.939,2.472,1.939,4.347c0,0.924-0.197,1.758-0.59,2.5    c-0.394,0.742-0.92,1.371-1.581,1.89c-0.661,0.519-1.405,0.924-2.234,1.218C126.071,98.583,125.208,98.744,124.309,98.771z     M139.032,111.498h14.994v-1.555h-13.272V99.15h11.087v-1.555h-11.087V86.802h13.272v-1.554h-14.994V111.498z M177.504,109.104    l-15.838-23.855h-2.055v26.25h1.723V87.684l15.918,24.066h1.975V85.248h-1.723V109.104L177.504,109.104z M202.578,88.839    c-1.205-1.134-2.66-2.016-4.368-2.646c-1.708-0.63-3.626-0.945-5.755-0.945h-6.342v26.25h6.09c2.213,0,4.193-0.294,5.943-0.882    c1.75-0.589,3.234-1.449,4.452-2.583c1.218-1.135,2.149-2.527,2.793-4.18c0.644-1.651,0.966-3.541,0.966-5.67    c0-1.903-0.329-3.653-0.986-5.25C204.713,91.338,203.781,89.973,202.578,88.839z M203.646,103.537    c-0.604,1.461-1.453,2.663-2.548,3.604c-1.095,0.941-2.394,1.645-3.896,2.107c-1.501,0.465-3.15,0.695-4.946,0.695h-4.421V86.802    h4.421c1.937,0,3.663,0.274,5.179,0.823c1.516,0.548,2.801,1.328,3.853,2.339c1.053,1.012,1.86,2.228,2.422,3.646    c0.562,1.42,0.842,3,0.842,4.742C204.552,100.348,204.25,102.076,203.646,103.537z M211.775,111.498h14.994v-1.555h-13.271V99.15    h11.088v-1.555h-11.088V86.802h13.271v-1.554h-14.994V111.498z M244.031,98.919c0.756-0.405,1.428-0.903,2.016-1.491    c0.588-0.588,1.057-1.281,1.407-2.078c0.35-0.799,0.524-1.688,0.524-2.668c0-2.239-0.749-4.038-2.246-5.396    c-1.498-1.358-3.885-2.037-7.161-2.037h-6.216v26.25h1.722v-10.92l5.997-0.378l7.107,11.298h1.974l-7.476-11.634    C242.49,99.641,243.275,99.325,244.031,98.919z M239.177,98.771l-5.1,0.168V86.802h4.257c2.641,0,4.607,0.512,5.9,1.533    c1.293,1.022,1.938,2.472,1.938,4.347c0,0.924-0.196,1.758-0.59,2.5c-0.394,0.742-0.921,1.371-1.581,1.89    c-0.66,0.519-1.404,0.924-2.234,1.218C240.939,98.583,240.076,98.744,239.177,98.771z M253.9,111.498h14.994v-1.555h-13.271V99.15    h11.088v-1.555h-11.088V86.802h13.271v-1.554H253.9V111.498z M283.805,99.864c0.811-0.224,1.596-0.539,2.352-0.945    c0.756-0.405,1.428-0.903,2.016-1.491c0.588-0.588,1.057-1.281,1.407-2.078c0.35-0.799,0.524-1.688,0.524-2.668    c0-2.239-0.749-4.038-2.246-5.396c-1.498-1.358-3.885-2.037-7.161-2.037h-6.216v26.25h1.722v-10.92l5.997-0.378l7.107,11.298    h1.974L283.805,99.864z M281.302,98.771l-5.1,0.168V86.802h4.257c2.641,0,4.607,0.512,5.9,1.533    c1.293,1.022,1.938,2.472,1.938,4.347c0,0.924-0.196,1.758-0.59,2.5c-0.394,0.742-0.921,1.371-1.581,1.89    c-0.66,0.519-1.404,0.924-2.234,1.218C283.064,98.583,282.201,98.744,281.302,98.771z"/>
<path fill="none" stroke="#262C35" stroke-width="4" stroke-linecap="round" stroke-miterlimit="10" stroke-dasharray="18" d="  M409.559,459.003v-272"/>
</svg>
